<?xml version="1.0" standalone="no"?>
<!DOCTYPE svg PUBLIC "-//W3C//DTD SVG 1.1//EN" "http://www.w3.org/Graphics/SVG/1.1/DTD/svg11.dtd" >
<svg xmlns="http://www.w3.org/2000/svg">
<metadata>
This is a custom SVG webfont generated by Font Squirrel.
Copyright   : Copyright 2011 Dalton Maag Ltd Modification of this file requires prior written permission from Dalton Maag Ltd
Designer    : Dalton Maag Ltd
Foundry     : Dalton Maag Ltd
Foundry URL : httpwwwdaltonmaagcom
</metadata>
<defs>
<font id="HPTextBetaRegular" horiz-adv-x="1167" >
<font-face units-per-em="2048" ascent="1638" descent="-410" />
<missing-glyph horiz-adv-x="460" />
<glyph unicode=" "  horiz-adv-x="460" />
<glyph unicode="&#x09;" horiz-adv-x="460" />
<glyph unicode="&#xa0;" horiz-adv-x="460" />
<glyph unicode="!" horiz-adv-x="577" d="M143 121q0 141 146 141q145 0 145 -141t-145 -141q-146 0 -146 141zM184 1065v354h211v-354l-28 -616h-154z" />
<glyph unicode="&#x22;" horiz-adv-x="929" d="M555 1524h217l-29 -500h-160zM160 1524h217l-29 -500h-160z" />
<glyph unicode="#" d="M61 362v154h199l62 387h-220v154h244l60 362h161l-59 -362h262l59 362h162l-59 -362h176v-154h-201l-61 -387h221v-154h-246l-57 -362h-162l57 362h-262l-57 -362h-162l58 362h-175zM422 516h262l61 387h-262z" />
<glyph unicode="$" d="M154 1006q0 88 27.5 153.5t75.5 110.5t114.5 71.5t144.5 38.5v205h127v-194h14q51 0 101.5 -5.5t91.5 -13.5t68.5 -15t37.5 -9v-142q-35 6 -121.5 16.5t-191.5 10.5v-475l55 -19q70 -23 127.5 -51.5t97.5 -71.5t62.5 -102t22.5 -143q0 -168 -95.5 -264.5t-269.5 -118.5 v-211h-127v203q-45 0 -94 4t-95 10t-86 14t-69 19v143l43 -7q31 -5 76 -9t102.5 -8.5t122.5 -4.5v471l-53 19q-68 25 -124 54.5t-98 72.5t-64.5 103.5t-22.5 144.5zM328 1014q0 -86 51 -136.5t137 -80.5v426q-104 -16 -146 -69.5t-42 -139.5zM643 150q186 33 186 210 q0 49 -14 84t-39.5 59.5t-59.5 42t-73 29.5v-425z" />
<glyph unicode="%" horiz-adv-x="1853" d="M92 1026q0 109 24.5 182.5t67.5 117.5t103.5 63.5t132.5 19.5q70 0 130 -19.5t105 -63.5t70 -117.5t25 -182.5t-25 -182.5t-70 -117.5t-105.5 -63.5t-129.5 -19.5q-72 0 -132.5 19.5t-103.5 63.5t-67.5 117.5t-24.5 182.5zM250 1026q0 -127 37 -192.5t133 -65.5 q98 0 135 65.5t37 192.5t-37 192.5t-135 65.5q-96 0 -133 -65.5t-37 -192.5zM412 0l843 1399h187l-844 -1399h-186zM1104 373q0 109 24.5 182.5t67.5 117.5t103.5 63.5t132.5 19.5q70 0 130 -19.5t105 -63.5t69.5 -118t24.5 -182q0 -109 -24.5 -182.5t-69.5 -117.5 t-105.5 -63.5t-129.5 -19.5q-72 0 -132.5 19.5t-103.5 63.5t-67.5 117.5t-24.5 182.5zM1262 373q0 -127 36.5 -192.5t133.5 -65.5q98 0 135 65.5t37 192.5t-37 192.5t-135 65.5q-96 0 -133 -65.5t-37 -192.5z" />
<glyph unicode="&#x26;" horiz-adv-x="1427" d="M96 369q0 88 27 153.5t71 113.5t101 82t121 62q-86 78 -122 159t-36 179q0 154 101.5 244t275.5 90q92 0 158.5 -24.5t110.5 -66.5t64.5 -99.5t20.5 -122.5q0 -80 -22.5 -137.5t-60.5 -100.5t-90 -75.5t-109 -59.5q86 -70 174 -149.5t170 -165.5q49 109 67 272h168 q-16 -123 -46 -222.5t-73 -176.5q74 -84 134.5 -166t103.5 -158h-219q-25 39 -57.5 83t-71.5 91q-102 -104 -227 -149t-252 -45q-131 0 -223.5 33.5t-150 89t-83 125t-25.5 141.5zM283 381q0 -45 18 -89t56 -78t97.5 -55.5t139.5 -21.5q37 0 82 7.5t92 23.5t94 46t88 77 q-100 109 -210.5 213t-209.5 184q-49 -25 -94 -52.5t-78.5 -63t-54 -83t-20.5 -108.5zM432 1120q0 -66 40 -135.5t118 -128.5q47 23 90 47.5t74.5 57t50 73.5t18.5 94q0 82 -48 132.5t-142 50.5q-104 0 -152.5 -53.5t-48.5 -137.5z" />
<glyph unicode="'" horiz-adv-x="540" d="M162 1522h217l-29 -500h-160z" />
<glyph unicode="(" horiz-adv-x="636" d="M150 578q0 131 11 248.5t40.5 231t79 227.5t122.5 237h183q-66 -133 -110 -254t-71.5 -235.5t-40 -227.5t-12.5 -227q0 -115 12.5 -227.5t40 -228.5t71.5 -238t110 -253h-183q-74 123 -123 238t-78.5 228.5t-40.5 231.5t-11 249z" />
<glyph unicode=")" horiz-adv-x="636" d="M51 -369q63 131 108.5 253t73 238t40 228.5t12.5 227.5t-12.5 227.5t-40 227t-72.5 235.5t-109 254h182q74 -123 123.5 -237t79 -227.5t40.5 -231t11 -248.5t-11 -249t-40.5 -231.5t-79 -228.5t-123.5 -238h-182z" />
<glyph unicode="*" horiz-adv-x="868" d="M72 1085l51 152l252 -98l-21 280h160l-20 -280l251 98l52 -152l-267 -59l193 -225l-129 -96l-160 251l-160 -251l-129 96l193 225z" />
<glyph unicode="+" d="M123 516v154h379v403h164v-403h378v-154h-378v-407h-164v407h-379z" />
<glyph unicode="," horiz-adv-x="540" d="M104 -285q16 33 34 74t34 80t29.5 71.5t19.5 53.5q-39 10 -67.5 35.5t-28.5 91.5t34 103.5t109 37.5q78 0 114 -37t36 -104q0 -18 -3 -45t-15.5 -66t-36 -91t-64.5 -124l-45 -80h-150z" />
<glyph unicode="-" horiz-adv-x="706" d="M61 498v186h584v-186h-584z" />
<glyph unicode="." horiz-adv-x="540" d="M125 121q0 141 145 141t146 -141q0 -141 -146 -141q-145 0 -145 141z" />
<glyph unicode="/" horiz-adv-x="759" d="M-4 -369l520 1891h186l-520 -1891h-186z" />
<glyph unicode="0" d="M92 700q0 203 31 340.5t92 221.5t153.5 120.5t215.5 36.5t215 -36.5t153.5 -120.5t92 -221.5t30.5 -340.5t-30.5 -340t-92 -222t-153.5 -121.5t-215 -36.5t-215.5 36.5t-153.5 121.5t-92 222t-31 340zM291 700q0 -160 14 -267t48 -172.5t90.5 -93.5t140.5 -28 q94 0 151.5 28t89 93.5t42 173t10.5 266.5q0 158 -14.5 265.5t-48.5 173t-90 94.5t-140 29q-82 0 -137.5 -29t-90 -94.5t-50 -173t-15.5 -265.5z" />
<glyph unicode="1" d="M176 1036v170q31 16 97.5 49t139 67t135 61.5t85.5 35.5h100v-1419h-192v1192q-86 -35 -184.5 -76t-180.5 -80z" />
<glyph unicode="2" d="M121 0v43q0 190 71.5 330.5t200.5 232.5l189 137q35 27 67.5 56.5t58 65.5t41 79t15.5 94q0 100 -62.5 154.5t-218.5 54.5q-61 0 -117.5 -8t-100.5 -17.5t-73.5 -19.5t-37.5 -12v151q12 4 40.5 16.5t74.5 27t108.5 24.5t140.5 10q92 0 172 -19.5t140.5 -64.5t94 -117.5 t33.5 -179.5q0 -129 -62 -222t-142 -150l-213 -152q-119 -86 -166 -174t-58 -168h644v-172h-840z" />
<glyph unicode="3" d="M92 39v154q29 -8 127 -27t246 -19q147 0 227 55.5t80 178.5q0 45 -8 89t-45 80t-110.5 58.5t-202.5 22.5h-78v157h78q106 0 172.5 18.5t103.5 51.5t50 77t13 95q0 102 -61 162.5t-219 60.5q-68 0 -127 -8t-103.5 -17t-73 -19.5t-36.5 -12.5v150q8 4 35.5 16t75 24.5 t112 22.5t148.5 10q88 0 166.5 -18.5t138 -62.5t95.5 -115.5t36 -178.5q0 -127 -63.5 -205.5t-180.5 -125.5q152 -33 215.5 -123t63.5 -228q0 -106 -41 -179.5t-111 -119t-160 -64.5t-190 -19q-78 0 -142.5 8t-112.5 18t-78 19.5t-40 13.5z" />
<glyph unicode="4" d="M102 311v170q37 84 100.5 199t145.5 241t177.5 255t195.5 243h182v-962h152v-146h-152v-311h-174v311h-627zM254 457h475v735q-70 -80 -144.5 -185.5t-142 -212t-118 -197.5t-70.5 -140z" />
<glyph unicode="5" d="M135 39v154q49 -12 138 -29t229 -17q160 0 229.5 61.5t69.5 203.5q0 68 -18.5 118t-59.5 82.5t-110.5 49t-170.5 16.5q-41 0 -83 -1t-77.5 -3t-62 -4t-37.5 -2l25 731h735v-172h-580l-14 -408q14 2 61.5 5t131.5 3q219 0 335.5 -106.5t116.5 -308.5q0 -92 -23.5 -171 t-78.5 -137.5t-145.5 -91t-223.5 -32.5q-164 0 -262 24.5t-125 34.5z" />
<glyph unicode="6" d="M123 649q0 211 36 357.5t108.5 238.5t182 133t257.5 41q111 0 182.5 -21.5t87.5 -31.5v-143q-18 4 -87 17t-167 13q-66 0 -133.5 -10t-125.5 -54t-99 -134t-50 -248q14 10 43 26.5t70 32t94 26.5t119 11q117 0 198 -32.5t132 -92t74.5 -145.5t23.5 -191q0 -98 -25.5 -183 t-81 -147.5t-143.5 -97t-213 -34.5q-123 0 -213 37.5t-150.5 118.5t-90 208t-29.5 305zM315 618q0 -147 19.5 -243t56.5 -151.5t91.5 -77t123.5 -21.5q80 0 132.5 24.5t83 68.5t43 102.5t12.5 125.5q0 88 -19.5 145.5t-56.5 91.5t-88 48t-113 14q-49 0 -94 -11t-83 -27.5 t-65.5 -34t-42.5 -27.5v-27z" />
<glyph unicode="7" d="M98 1227v172h887v-170q-94 -184 -167 -340t-134 -300.5t-113.5 -286.5t-107.5 -302h-197q47 129 101.5 269.5t121 294t145.5 319.5t175 344h-711z" />
<glyph unicode="8" d="M90 381q0 45 11.5 98t41 101.5t79.5 87.5t130 57q-100 31 -162.5 110.5t-62.5 221.5q0 76 26.5 142.5t83 115.5t142.5 76.5t205 27.5t204.5 -27.5t142 -75.5t83 -113.5t26.5 -141.5q0 -141 -62.5 -223t-162.5 -113q80 -18 130 -57t80 -87.5t41 -101.5t11 -98 q0 -195 -120.5 -298t-372.5 -103t-373 103t-121 298zM283 381q0 -131 71.5 -194.5t229.5 -63.5t229.5 63.5t71.5 194.5q0 47 -10.5 94t-43 86t-91 62.5t-156.5 23.5t-156.5 -23.5t-91.5 -62.5t-43 -86t-10 -94zM311 1047q0 -41 8.5 -86.5t36 -82t82 -60t146.5 -23.5 t146 23.5t82 60t36 82t8 86.5q0 111 -68.5 173t-203.5 62t-204 -62t-69 -173z" />
<glyph unicode="9" d="M98 956q0 98 26 183.5t81 148t143 97t213 34.5q123 0 213 -38t150.5 -118.5t90 -207.5t29.5 -305q0 -211 -35.5 -357.5t-108.5 -239t-182.5 -133t-256.5 -40.5q-111 0 -182.5 21.5t-88.5 31.5v143q18 -4 87 -17.5t167 -13.5q63 0 132 10.5t127.5 54.5t99.5 134t49 248 q-16 -10 -44 -26.5t-69 -32t-94 -26.5t-119 -11q-117 0 -197.5 32.5t-132 92t-75 145.5t-23.5 190zM291 952q0 -88 19.5 -145t56 -91t88 -48.5t112.5 -14.5q49 0 94.5 11.5t83 28t65.5 33.5t42 28v26q0 147 -19.5 243.5t-56.5 152t-91 77t-124 21.5q-80 0 -132 -24.5 t-83 -68.5t-43 -102.5t-12 -126.5z" />
<glyph unicode=":" horiz-adv-x="540" d="M125 121q0 141 145 141t146 -141q0 -141 -146 -141q-145 0 -145 141zM125 897q0 141 145 141t146 -141q0 -141 -146 -141q-145 0 -145 141z" />
<glyph unicode=";" horiz-adv-x="540" d="M104 -285q16 33 34 74t34 80t29.5 71.5t19.5 53.5q-39 10 -67.5 35.5t-28.5 91.5t34 103.5t109 37.5q78 0 114 -37t36 -104q0 -18 -3 -45t-15.5 -66t-36 -91t-64.5 -124l-45 -80h-150zM125 897q0 141 145 141t146 -141q0 -141 -146 -141q-145 0 -145 141z" />
<glyph unicode="&#x3c;" d="M143 518v146l883 380v-172l-666 -280l666 -283v-172z" />
<glyph unicode="=" d="M123 283v153h921v-153h-921zM123 745v154h921v-154h-921z" />
<glyph unicode="&#x3e;" d="M184 137v172l666 283l-666 280v172l883 -380v-146z" />
<glyph unicode="?" horiz-adv-x="892" d="M61 1231v147q16 6 53.5 17.5t86.5 20.5t106.5 16.5t112.5 7.5q113 0 192.5 -28t131 -76t75 -111.5t23.5 -132.5q0 -61 -13.5 -107.5t-37 -84.5t-52 -68.5t-59.5 -59.5q-59 -55 -101 -94t-70 -75t-42 -78t-16 -103h-166v47q0 66 19.5 119t52 97t73.5 83t84 76 q80 70 105.5 123t25.5 120q0 92 -64.5 139.5t-199.5 47.5q-61 0 -116.5 -6t-98.5 -14.5t-71 -14.5t-34 -8zM223 121q0 141 146 141q145 0 145 -141t-145 -141q-146 0 -146 141z" />
<glyph unicode="@" horiz-adv-x="1873" d="M117 446q0 203 55 378t169 303t286 201t405 73q127 0 256 -32t233.5 -108.5t170 -202.5t65.5 -315q0 -121 -27.5 -239.5t-88 -211.5t-156.5 -150.5t-234 -57.5h-135q-16 31 -24.5 55.5t-14.5 61.5q-53 -53 -129 -90t-162 -37q-135 0 -205.5 93t-70.5 234q0 121 34 235 t98.5 202t160.5 141t223 53q61 0 111.5 -9t91.5 -22.5t70.5 -29t50.5 -25.5l-90 -444q-14 -70 -18.5 -126.5t-4.5 -84.5q0 -27 1 -40t3 -22h37q82 0 139.5 48.5t93 123t52 165.5t16.5 177q0 129 -39 223.5t-111.5 154t-177 88t-235.5 28.5q-180 0 -314.5 -56.5 t-223.5 -159.5t-133 -249.5t-44 -325.5q0 -170 50 -284.5t140.5 -185t217.5 -101.5t278 -31q49 0 102.5 3t104.5 6.5t92 7.5t66 8l-17 -150q-41 -10 -137 -25.5t-231 -15.5q-176 0 -331 37t-269.5 126t-182 236.5t-67.5 368.5zM686 399q0 -90 36 -131t101 -41q63 0 131 40 t117 95q4 35 10 76t15 80l69 340q-80 29 -149 29q-94 0 -157.5 -49.5t-101.5 -123t-54.5 -158.5t-16.5 -157z" />
<glyph unicode="A" horiz-adv-x="1212" d="M41 0q33 178 85 372.5t114.5 384t129 360.5t128.5 302h221q61 -131 127.5 -303t128 -360.5t113 -383t83.5 -372.5h-198q-18 98 -40 197.5t-48 201.5h-568q-27 -102 -49 -201.5t-39 -197.5h-188zM362 567h478q-49 174 -105.5 346t-134.5 330q-74 -162 -131.5 -332 t-106.5 -344z" />
<glyph unicode="B" horiz-adv-x="1286" d="M184 0v1417q16 2 59.5 6t106 8.5t139 6.5t162.5 2q106 0 193.5 -20.5t150 -65.5t97 -117t34.5 -172q0 -111 -48 -191.5t-144 -128.5q51 -14 96 -40.5t78 -68.5t51.5 -102.5t18.5 -142.5q0 -113 -44 -187.5t-115 -119.5t-162 -64.5t-185 -19.5h-488zM375 158h250 q68 0 131 6t113.5 29.5t81 71.5t30.5 134t-28.5 136.5t-78 78t-114 35.5t-133.5 8h-252v-499zM375 815h203q70 0 133 7t112 32t78 72t29 129t-28 127t-72 67.5t-102 27.5t-120 5q-98 0 -155.5 -3t-77.5 -5v-459z" />
<glyph unicode="C" horiz-adv-x="1153" d="M139 711q0 223 53.5 367.5t140.5 227.5t198.5 114.5t228.5 31.5q51 0 103 -6t97.5 -13.5t76 -15.5t38.5 -10v-162q-35 6 -112.5 13.5t-174.5 7.5q-106 0 -189 -28t-140.5 -92.5t-87 -171t-29.5 -263.5q0 -156 29.5 -262.5t87 -172t140.5 -94t189 -28.5q47 0 93.5 2 t85.5 5t69.5 6t48.5 7v-158q-59 -23 -151 -36t-182 -13q-117 0 -227.5 30t-196.5 110.5t-137.5 226.5t-51.5 377z" />
<glyph unicode="D" horiz-adv-x="1423" d="M184 0v1419q23 2 73 6.5t108.5 7.5t116 5t91.5 2q147 0 276.5 -28t225.5 -107.5t152.5 -222t56.5 -371.5q0 -215 -54 -352.5t-150.5 -217.5t-226.5 -110.5t-280 -30.5h-389zM381 166h176q121 0 218 21.5t165 81t104.5 166t36.5 276.5q0 178 -36.5 288.5t-104.5 171 t-165 82t-218 21.5q-43 0 -69.5 -1t-46 -2t-33 -2t-27.5 -3v-1100z" />
<glyph unicode="E" horiz-adv-x="1198" d="M184 0v1419h906v-180h-709v-422h651v-180h-651v-457h729v-180h-926z" />
<glyph unicode="F" horiz-adv-x="1150" d="M184 0v1419h899v-180h-702v-422h633v-180h-633v-637h-197z" />
<glyph unicode="G" horiz-adv-x="1337" d="M139 711q0 223 56.5 367.5t147.5 227.5t206 114.5t231 31.5q51 0 107.5 -5t103.5 -12.5t82 -14.5t43 -9v-162q-18 2 -50 6.5t-74 6.5t-89 4t-94 2q-106 0 -192.5 -28t-147.5 -92.5t-94 -172t-33 -264.5q0 -156 33 -263.5t94 -175t147 -97.5t193 -30q63 0 109.5 3.5 t64.5 7.5v426h-240v180h435v-754q-27 -6 -68 -13t-91 -13.5t-106.5 -10.5t-113.5 -4q-127 0 -246 30t-211 110.5t-147.5 226.5t-55.5 377z" />
<glyph unicode="H" horiz-adv-x="1429" d="M184 0v1419h197v-583h668v583h196v-1419h-196v655h-668v-655h-197z" />
<glyph unicode="I" horiz-adv-x="565" d="M184 0v1419h197v-1419h-197z" />
<glyph unicode="J" horiz-adv-x="995" d="M57 23v155q37 -10 100.5 -24.5t166.5 -14.5q68 0 124 14.5t96 52.5t62.5 104.5t22.5 172.5v936h196v-934q0 -154 -36.5 -254t-99 -158.5t-146.5 -82t-176 -23.5q-129 0 -208 23t-102 33z" />
<glyph unicode="K" horiz-adv-x="1249" d="M184 0v1419h197v-626q168 139 302 297.5t263 328.5h225q-33 -43 -90 -119.5t-135 -170t-173 -196t-200 -198.5q102 -88 188.5 -177t164.5 -180t150.5 -185.5t146.5 -192.5h-260q-145 197 -283.5 357.5t-298.5 299.5v-657h-197z" />
<glyph unicode="L" horiz-adv-x="1105" d="M184 0v1419h197v-1239h668v-180h-865z" />
<glyph unicode="M" horiz-adv-x="1679" d="M184 0v1419h217l439 -862l438 862h217v-1419h-190v1130l-383 -747h-181l-366 715v-1098h-191z" />
<glyph unicode="N" horiz-adv-x="1417" d="M184 0v1419h197q186 -272 350 -529t311 -530v1059h191v-1419h-197q-178 338 -342 612.5t-319 497.5v-1110h-191z" />
<glyph unicode="O" horiz-adv-x="1497" d="M139 711q0 231 53.5 375.5t140.5 226.5t195.5 110.5t219.5 28.5t220 -28.5t196 -110.5t140.5 -226.5t53.5 -375.5t-53.5 -377t-140.5 -226.5t-196.5 -110.5t-219.5 -30q-111 0 -219.5 30t-195.5 110.5t-140.5 226.5t-53.5 377zM342 711q0 -158 29.5 -267.5t83 -178 t128 -99.5t165.5 -31q86 0 160.5 31t130 99.5t86 178t30.5 267.5q0 156 -29.5 265t-84 178t-129 99.5t-164.5 30.5q-86 0 -161 -30.5t-129.5 -98.5t-85 -177t-30.5 -267z" />
<glyph unicode="P" horiz-adv-x="1196" d="M184 0v1419q37 4 129.5 12.5t233.5 8.5q279 0 415 -107.5t136 -361.5q0 -127 -38 -215t-102.5 -143.5t-150.5 -80t-184 -24.5q-86 0 -155 7t-91 11v-526h-193zM377 692q37 -8 96 -14t123 -6q68 0 123 14t95 49t62.5 92.5t22.5 143.5q0 94 -25.5 153.5t-70.5 94t-106.5 48 t-131.5 13.5q-68 0 -120 -3t-68 -5v-580z" />
<glyph unicode="Q" horiz-adv-x="1497" d="M139 711q0 231 53.5 375.5t140.5 226.5t195.5 110.5t219.5 28.5t220 -28.5t196 -110.5t140.5 -226.5t53.5 -375.5q0 -154 -24.5 -268.5t-66.5 -197.5t-100.5 -137.5t-126.5 -84.5q102 -127 155.5 -229.5t82.5 -162.5h-229q-33 76 -84.5 163t-122.5 179q-49 -6 -94 -6 q-111 0 -219.5 30t-195.5 110.5t-140.5 226.5t-53.5 377zM342 711q0 -158 29.5 -267.5t83 -178t128 -99.5t165.5 -31q86 0 160.5 31t130 99.5t86 178t30.5 267.5q0 156 -29.5 265t-84 178t-129 99.5t-164.5 30.5q-86 0 -161 -30.5t-129.5 -98.5t-85 -177t-30.5 -267z" />
<glyph unicode="R" horiz-adv-x="1263" d="M184 0v1419q33 4 127.5 12.5t249.5 8.5q131 0 231.5 -22.5t168 -74t102.5 -133.5t35 -198q0 -154 -71 -245t-179 -134q57 -84 105 -172t88 -171t71 -158t53 -132h-221q-23 55 -59.5 138t-78.5 168t-84 162t-77 124q-12 -2 -25 -2h-26q-66 0 -115 2t-102 6v-598h-193z M377 762q59 -6 105 -7t93 -1q68 0 126.5 11t102.5 40t69.5 79t25.5 128q0 86 -26.5 138t-71.5 82t-107.5 39t-132.5 9q-68 0 -119 -3t-65 -5v-510z" />
<glyph unicode="S" horiz-adv-x="1095" d="M94 1047q0 115 43 192.5t116 124.5t169 67.5t203 20.5q59 0 112.5 -7t95 -17.5t70.5 -19.5t37 -11v-158q-37 6 -126 22.5t-200 16.5q-182 0 -255.5 -55.5t-73.5 -167.5q0 -102 64.5 -155.5t176.5 -88.5l144 -43q76 -25 136 -54.5t102 -74.5t63.5 -108.5t21.5 -151.5 q0 -207 -135 -309.5t-381 -102.5q-104 0 -203.5 18.5t-158.5 41.5v159q12 -4 43.5 -10t79 -13t108 -12.5t127.5 -5.5q168 0 247 50.5t79 173.5q0 57 -19.5 96t-51.5 66.5t-75 45t-92 31.5l-141 43q-72 23 -132.5 54.5t-103.5 77.5t-66.5 111t-23.5 153z" />
<glyph unicode="T" horiz-adv-x="1216" d="M57 1239v180h1102v-180h-452v-1239h-197v1239h-453z" />
<glyph unicode="U" horiz-adv-x="1398" d="M170 518v901h199v-942q0 -168 83 -255t248 -87q176 0 253 84t77 264v936h199v-901q0 -125 -29 -226.5t-91 -174t-161.5 -111.5t-240.5 -39q-121 0 -219.5 26.5t-169 90t-109.5 169t-39 265.5z" />
<glyph unicode="V" horiz-adv-x="1212" d="M41 1419h199q27 -166 73.5 -349t100 -351t106.5 -307.5t94 -218.5q51 106 107.5 260.5t108 323.5t92.5 338t63 304h186q-66 -356 -187.5 -719.5t-268.5 -699.5h-221q-147 336 -267 699.5t-186 719.5z" />
<glyph unicode="W" horiz-adv-x="1708" d="M78 1419h196q8 -139 32 -288.5t55.5 -303t65.5 -307t65 -297.5l266 1098h209l260 -1098q41 145 73.5 285.5t59 285t48.5 298t38 327.5h184q-18 -184 -46 -359t-64.5 -349t-83.5 -350.5t-107 -360.5h-225l-248 1094l-254 -1094h-225q-55 182 -102.5 358.5t-84 351.5 t-64.5 351t-48 358z" />
<glyph unicode="X" horiz-adv-x="1253" d="M88 0q16 92 63.5 193.5t106.5 197.5t126 183.5t122 152.5q-68 82 -130.5 170t-114.5 177t-92 176t-60 169h208q12 -59 44 -133t76 -153.5t100.5 -157.5t117.5 -144q49 57 99.5 131t94.5 153t79 158t51 146h184q-55 -205 -155.5 -371.5t-227.5 -320.5q154 -195 248 -372 t137 -355h-202q-33 100 -66 183t-72 157t-85 141.5t-105 134.5q-152 -168 -237 -330.5t-128 -285.5h-182z" />
<glyph unicode="Y" horiz-adv-x="1155" d="M41 1419h201q27 -100 68.5 -200.5t91 -190.5t98.5 -163.5t88 -123.5q47 63 99 147.5t99.5 174.5t85 182t58.5 174h184q-61 -215 -181 -431t-259 -417v-571h-197v571q-70 100 -135.5 205t-121.5 212.5t-102 216t-77 214.5z" />
<glyph unicode="Z" horiz-adv-x="1112" d="M88 0v160q45 90 127 225t178 285.5t198.5 300t190.5 268.5h-673v180h899v-159q-66 -84 -137.5 -182.5t-143.5 -201t-138.5 -206t-123.5 -195.5t-101.5 -168t-68.5 -127h729v-180h-936z" />
<glyph unicode="[" horiz-adv-x="772" d="M195 -369v1891h516v-172h-326v-1547h326v-172h-516z" />
<glyph unicode="\" horiz-adv-x="759" d="M57 1522h193l514 -1891h-193z" />
<glyph unicode="]" horiz-adv-x="772" d="M61 -197h326v1547h-326v172h517v-1891h-517v172z" />
<glyph unicode="^" horiz-adv-x="1040" d="M72 678l366 741h164l367 -741h-183l-266 543l-266 -543h-182z" />
<glyph unicode="_" horiz-adv-x="1024" d="M-10 -197h1044v-172h-1044v172z" />
<glyph unicode="`" horiz-adv-x="428" d="M-20 1522h221l125 -297h-150z" />
<glyph unicode="a" horiz-adv-x="1136" d="M102 311q0 96 32 160t88.5 101.5t135 53t170.5 15.5h254v41q0 100 -67.5 151.5t-220.5 51.5q-43 0 -91.5 -2t-94.5 -5.5t-83 -7.5t-57 -6v140q76 25 173 41t204 16q121 0 201.5 -30t130 -82t71 -120.5t21.5 -146.5v-682h-138l-45 102q-27 -25 -63.5 -46t-79.5 -38.5 t-92 -27.5t-98 -10q-176 0 -263.5 92t-87.5 239zM281 313q0 -84 53 -131t147 -47q88 0 172 34t129 77v248h-278q-66 0 -109 -14.5t-68.5 -39t-35.5 -57.5t-10 -70z" />
<glyph unicode="b" horiz-adv-x="1187" d="M168 57v1465h190v-535q55 29 124 51.5t163 22.5q213 0 319.5 -130t106.5 -413t-129 -410.5t-371 -127.5q-90 0 -155.5 8t-113.5 20t-79.5 25.5t-54.5 23.5zM358 172q29 -8 89.5 -15t144.5 -7q63 0 115.5 18t90.5 61t58.5 114t20.5 175t-18.5 176t-53.5 117t-84 64.5 t-111 19.5q-76 0 -142.5 -21.5t-109.5 -48.5v-653z" />
<glyph unicode="c" horiz-adv-x="960" d="M117 520q0 123 24.5 223.5t81 171t147.5 108.5t226 38q113 0 186.5 -24.5t89.5 -35.5v-137q-31 6 -106.5 16.5t-173.5 10.5q-158 0 -219.5 -94.5t-61.5 -276.5q0 -186 61.5 -278t213.5 -92q43 0 86 4t83 9t72.5 10t51.5 9v-143q-12 -6 -42 -16.5t-69 -19.5t-87 -16 t-97 -7q-129 0 -218.5 36.5t-144.5 106.5t-79.5 170t-24.5 227z" />
<glyph unicode="d" horiz-adv-x="1183" d="M117 512q0 289 120.5 419t358.5 130q63 0 130 -16.5t99 -32.5v510h191v-1522h-135l-43 96q-41 -41 -113 -78.5t-180 -37.5q-219 0 -323.5 125.5t-104.5 406.5zM311 512q0 -109 17.5 -179.5t51.5 -113.5t85 -60.5t119 -17.5q96 0 152.5 36t88.5 73v608q-49 16 -97 27.5 t-112 11.5q-74 0 -130 -19.5t-95 -63.5t-59.5 -117.5t-20.5 -184.5z" />
<glyph unicode="e" horiz-adv-x="1097" d="M117 516q0 283 127 414t342 131q205 0 305 -113.5t100 -310.5q0 -45 -4 -95t-14 -91h-672q4 -168 87 -234.5t243 -66.5q90 0 180 10t150 26v-149q-76 -27 -165 -42t-180 -15q-252 0 -375.5 128.5t-123.5 407.5zM301 598h516v39q0 139 -56 204.5t-186 65.5 q-129 0 -199.5 -75.5t-74.5 -233.5z" />
<glyph unicode="f" horiz-adv-x="743" d="M74 883v157h151v162q0 70 23.5 131.5t68.5 107.5t112 72.5t155 26.5q33 0 66.5 -3t62 -7t51 -9t33.5 -8v-147q-10 2 -62.5 6t-118.5 4q-104 0 -152 -54t-48 -171v-111h276v-157h-276v-883h-191v883h-151z" />
<glyph unicode="g" horiz-adv-x="1173" d="M117 553q0 264 137 386t418 122q160 0 276.5 -16.5t157.5 -26.5v-133h-100v-860q0 -90 -26 -166t-81 -131.5t-140 -86t-204 -30.5q-80 0 -139.5 5t-101.5 12t-68.5 14.5t-44.5 11.5v156q72 -10 151.5 -19.5t171.5 -9.5q129 0 210 50t81 165v106q-61 -29 -135 -45 t-152 -16q-109 0 -185.5 37t-127.5 103.5t-74.5 160.5t-23.5 211zM311 553q0 -98 19.5 -164.5t54.5 -106.5t83 -57.5t107 -17.5q86 0 146.5 20.5t93.5 36.5v625q-29 2 -62.5 4t-86.5 2q-78 0 -142.5 -13.5t-111.5 -50t-74 -103t-27 -175.5z" />
<glyph unicode="h" horiz-adv-x="1210" d="M168 0v1522h190v-576q20 18 53 39t75 37t89.5 27.5t98.5 11.5q184 0 276 -86t92 -275v-700h-190v684q0 109 -63.5 159t-163.5 50q-86 0 -156 -35t-111 -76v-782h-190z" />
<glyph unicode="i" horiz-adv-x="526" d="M139 1350q0 121 125 120q125 0 125 -120q0 -121 -125 -121t-125 121zM168 0v1040h190v-1040h-190z" />
<glyph unicode="j" horiz-adv-x="526" d="M-104 -221q35 -4 63.5 -6t56.5 -2q33 0 60.5 7t48 24.5t32 48t11.5 77.5v1112h190v-1132q0 -84 -21.5 -140.5t-60 -91t-90 -50t-108.5 -15.5q-74 0 -121 8t-61 12v148zM139 1350q0 121 125 120q125 0 125 -120q0 -121 -125 -121t-125 121z" />
<glyph unicode="k" horiz-adv-x="1077" d="M168 0v1522h190v-897q145 104 257 206.5t188 208.5h188q-33 -82 -145.5 -206.5t-308.5 -278.5q182 -135 305 -283.5t194 -271.5h-213q-37 49 -83 107.5t-103 120t-127 124t-152 119.5v-471h-190z" />
<glyph unicode="l" horiz-adv-x="571" d="M168 260v1262h190v-1272q0 -68 39 -87.5t92 -19.5q16 0 28.5 1t23.5 1v-133q-25 -8 -56.5 -14t-85.5 -6q-109 0 -170 59t-61 209z" />
<glyph unicode="m" horiz-adv-x="1828" d="M168 0v1040h135l45 -102q18 20 49 41.5t71 40t88 30t103 11.5q119 0 195 -38t119 -116q61 66 149 110t199 44q170 0 255 -86t85 -275v-700h-191v684q0 111 -53 160t-143 49q-84 0 -158 -38t-112 -83q6 -53 6 -108v-664h-191v684q0 109 -57 159t-158 50q-76 0 -142.5 -37 t-103.5 -74v-782h-190z" />
<glyph unicode="n" horiz-adv-x="1210" d="M168 0v1040h145l35 -102q18 18 49 39.5t72 40t91 31t106 12.5q188 0 282 -83t94 -278v-700h-190v684q0 109 -63.5 159t-163.5 50q-86 0 -156 -35t-111 -76v-782h-190z" />
<glyph unicode="o" horiz-adv-x="1191" d="M117 520q0 258 112.5 399.5t366.5 141.5t366.5 -141.5t112.5 -399.5q0 -260 -112.5 -400t-366.5 -140t-366.5 140t-112.5 400zM311 520q0 -209 72 -301t213 -92q139 0 212 92t73 301t-74 298t-211 89q-139 0 -212 -89t-73 -298z" />
<glyph unicode="p" horiz-adv-x="1171" d="M70 885v133q35 8 149.5 25.5t298.5 17.5q260 0 398.5 -124t138.5 -402q0 -276 -107.5 -403.5t-337.5 -127.5q-43 0 -85 5t-75.5 13.5t-58 15.5t-33.5 11v-418h-190v1254h-98zM358 207q29 -10 91.5 -22.5t123.5 -12.5q70 0 123.5 15.5t90 56.5t55 111.5t18.5 179.5 t-25.5 179t-71.5 111t-112.5 56.5t-146.5 15.5q-45 0 -87 -2t-59 -4v-684z" />
<glyph unicode="q" horiz-adv-x="1173" d="M117 528q0 279 137 406t418 127q80 0 151.5 -5t129 -13.5t97.5 -15.5t56 -9v-133h-100v-1254h-191v437q-61 -29 -135 -45.5t-152 -16.5q-211 0 -311 137t-100 385zM311 528q0 -104 19.5 -172.5t54.5 -109.5t83 -57.5t107 -16.5q86 0 146.5 20.5t93.5 36.5v662 q-29 2 -62.5 4t-86.5 2q-78 0 -142.5 -17.5t-111.5 -59.5t-74 -112.5t-27 -179.5z" />
<glyph unicode="r" horiz-adv-x="811" d="M168 0v1040h135l45 -112q41 37 135.5 76.5t231.5 39.5q16 0 33.5 -1t31.5 -3v-184q-10 2 -42.5 3t-67.5 1q-53 0 -101.5 -10t-89.5 -27.5t-71.5 -38t-49.5 -39.5v-745h-190z" />
<glyph unicode="s" horiz-adv-x="1044" d="M113 768q0 88 30.5 144.5t86 89t133 46t169.5 13.5q147 0 232.5 -21.5t120.5 -35.5v-138q-106 16 -188.5 22.5t-161.5 6.5q-76 0 -122 -11.5t-71 -27.5t-33 -37.5t-8 -42.5q0 -43 19.5 -67.5t56.5 -42t88 -29.5t115 -29q90 -25 156.5 -50.5t110.5 -62t65.5 -87 t21.5 -123.5q0 -88 -32 -146.5t-86 -94.5t-127 -50t-154 -14q-164 0 -270.5 23.5t-137.5 33.5v149q84 -14 184.5 -26.5t200.5 -12.5q121 0 175 31t54 96q0 29 -9 53.5t-36.5 46t-79 41t-133.5 40.5q-102 25 -171.5 51t-114.5 61t-64.5 83t-19.5 118z" />
<glyph unicode="t" horiz-adv-x="757" d="M66 883v157h151v301h191v-301h299v-157h-299v-576q0 -55 16 -87t43 -48t59.5 -20.5t65.5 -4.5q41 0 83 2.5t52 4.5v-142q-23 -6 -75 -17t-101 -11q-98 0 -162.5 20.5t-102.5 63.5t-53.5 110.5t-15.5 161.5v543h-151z" />
<glyph unicode="u" horiz-adv-x="1210" d="M168 330v710h190v-688q0 -117 58.5 -163t158.5 -46q43 0 83 11.5t77 29t66.5 39t50.5 41.5v776h190v-1040h-135l-45 102q-18 -16 -49 -37.5t-72 -40t-90 -31.5t-104 -13q-186 0 -282.5 83t-96.5 267z" />
<glyph unicode="v" horiz-adv-x="1026" d="M41 1040h201q35 -248 102.5 -454.5t171.5 -403.5q100 195 170 403t111 455h188q-16 -109 -51 -237.5t-84 -265t-110.5 -274.5t-131.5 -263h-202q-61 117 -121 248t-109 266t-85 269t-50 257z" />
<glyph unicode="w" horiz-adv-x="1503" d="M61 1040h193q8 -98 25.5 -204.5t44 -215t60.5 -215t75 -202.5l203 755h174l213 -755q41 96 73.5 204.5t59 218t46 216t32.5 198.5h182q-47 -285 -118 -547t-185 -493h-199l-190 674l-195 -674h-199q-111 227 -186.5 488t-108.5 552z" />
<glyph unicode="x" horiz-adv-x="1048" d="M49 0q14 68 51 142.5t86.5 146t102.5 135t98 108.5q-111 117 -199 252.5t-122 255.5h198q10 -43 35 -97t60.5 -111.5t80.5 -113.5t95 -106q39 43 78.5 95.5t74.5 109.5t63.5 114.5t43.5 108.5h180q-45 -152 -126 -274.5t-183 -233.5q127 -137 202.5 -280t108.5 -252h-197 q-51 125 -107.5 234.5t-152.5 214.5q-123 -123 -190.5 -240t-102.5 -209h-178z" />
<glyph unicode="y" horiz-adv-x="1021" d="M41 1040h201q12 -90 42.5 -192.5t73.5 -207.5t94.5 -207.5t106.5 -192.5q88 199 141.5 407.5t81.5 392.5h199q-18 -127 -56 -268t-84 -276.5t-95.5 -255t-88.5 -199.5q-43 -86 -84 -165t-92 -137t-117.5 -93t-158.5 -35q-39 0 -81 6t-71 18v136q23 -2 49.5 -3t53.5 -1 q100 0 153 41.5t97 132.5l55 118q-78 113 -147.5 239t-125 253t-93.5 251.5t-54 237.5z" />
<glyph unicode="z" horiz-adv-x="1024" d="M94 0v156q141 199 302 380t309 336h-603v168h832v-155q-92 -98 -185.5 -199.5t-177.5 -196t-153.5 -178.5t-114.5 -145h637v-166h-846z" />
<glyph unicode="{" horiz-adv-x="778" d="M113 498v157q70 16 105.5 44t35.5 94v456q0 55 13.5 107.5t45 93.5t85 65.5t132.5 24.5q82 0 129.5 -6t57.5 -8v-146q-29 2 -59.5 4t-73.5 2q-47 0 -76 -14t-44 -40.5t-19.5 -65.5t-4.5 -90v-408q0 -78 -33.5 -126t-74.5 -67q41 -18 74.5 -66t33.5 -126v-408 q0 -51 4.5 -90t19.5 -65.5t44 -41t76 -14.5q43 0 73.5 2.5t59.5 4.5v-146q-10 -2 -57.5 -8t-129.5 -6q-80 0 -133 24.5t-84.5 65.5t-45 93t-13.5 108v458q0 66 -35.5 94t-105.5 44z" />
<glyph unicode="|" horiz-adv-x="591" d="M205 -369v1891h182v-1891h-182z" />
<glyph unicode="}" horiz-adv-x="778" d="M61 -229q29 -2 60 -4.5t74 -2.5q47 0 75.5 14.5t44 41t19.5 65.5t4 90v408q0 78 34 126t74 66q-41 18 -74.5 66.5t-33.5 126.5v408q0 51 -4 90t-19.5 65.5t-44 40.5t-75.5 14q-43 0 -74 -2t-60 -4v146q10 2 57.5 8t129.5 6q80 0 133 -24.5t85 -65.5t45 -93t13 -108v-456 q0 -66 36 -93.5t106 -44.5v-157q-70 -16 -106 -44t-36 -94v-458q0 -55 -13 -107.5t-45 -93.5t-85 -65.5t-133 -24.5q-82 0 -129 6t-58 8v146z" />
<glyph unicode="&#xaa;" horiz-adv-x="1136" d="M102 311q0 96 32 160t88.5 101.5t135 53t170.5 15.5h254v41q0 100 -67.5 151.5t-220.5 51.5q-43 0 -91.5 -2t-94.5 -5.5t-83 -7.5t-57 -6v140q76 25 173 41t204 16q121 0 201.5 -30t130 -82t71 -120.5t21.5 -146.5v-682h-138l-45 102q-27 -25 -63.5 -46t-79.5 -38.5 t-92 -27.5t-98 -10q-176 0 -263.5 92t-87.5 239zM281 313q0 -84 53 -131t147 -47q88 0 172 34t129 77v248h-278q-66 0 -109 -14.5t-68.5 -39t-35.5 -57.5t-10 -70z" />
<glyph unicode="&#xad;" horiz-adv-x="706" d="M61 498v186h584v-186h-584z" />
<glyph unicode="&#xb2;" d="M121 0v43q0 190 71.5 330.5t200.5 232.5l189 137q35 27 67.5 56.5t58 65.5t41 79t15.5 94q0 100 -62.5 154.5t-218.5 54.5q-61 0 -117.5 -8t-100.5 -17.5t-73.5 -19.5t-37.5 -12v151q12 4 40.5 16.5t74.5 27t108.5 24.5t140.5 10q92 0 172 -19.5t140.5 -64.5t94 -117.5 t33.5 -179.5q0 -129 -62 -222t-142 -150l-213 -152q-119 -86 -166 -174t-58 -168h644v-172h-840z" />
<glyph unicode="&#xb3;" d="M92 39v154q29 -8 127 -27t246 -19q147 0 227 55.5t80 178.5q0 45 -8 89t-45 80t-110.5 58.5t-202.5 22.5h-78v157h78q106 0 172.5 18.5t103.5 51.5t50 77t13 95q0 102 -61 162.5t-219 60.5q-68 0 -127 -8t-103.5 -17t-73 -19.5t-36.5 -12.5v150q8 4 35.5 16t75 24.5 t112 22.5t148.5 10q88 0 166.5 -18.5t138 -62.5t95.5 -115.5t36 -178.5q0 -127 -63.5 -205.5t-180.5 -125.5q152 -33 215.5 -123t63.5 -228q0 -106 -41 -179.5t-111 -119t-160 -64.5t-190 -19q-78 0 -142.5 8t-112.5 18t-78 19.5t-40 13.5z" />
<glyph unicode="&#xb9;" d="M176 1036v170q31 16 97.5 49t139 67t135 61.5t85.5 35.5h100v-1419h-192v1192q-86 -35 -184.5 -76t-180.5 -80z" />
<glyph unicode="&#xba;" horiz-adv-x="1191" d="M117 520q0 258 112.5 399.5t366.5 141.5t366.5 -141.5t112.5 -399.5q0 -260 -112.5 -400t-366.5 -140t-366.5 140t-112.5 400zM311 520q0 -209 72 -301t213 -92q139 0 212 92t73 301t-74 298t-211 89q-139 0 -212 -89t-73 -298z" />
<glyph unicode="&#xc0;" horiz-adv-x="1212" d="M336 1872h221l125 -297h-150zM41 0q33 178 85 372.5t114.5 384t129 360.5t128.5 302h221q61 -131 127.5 -303t128 -360.5t113 -383t83.5 -372.5h-198q-18 98 -40 197.5t-48 201.5h-568q-27 -102 -49 -201.5t-39 -197.5h-188zM362 567h478q-49 174 -105.5 346t-134.5 330 q-74 -162 -131.5 -332t-106.5 -344z" />
<glyph unicode="&#xc2;" horiz-adv-x="1212" d="M160 1575l366 741h164l367 -741h-183l-266 543l-266 -543h-182zM41 0q33 178 85 372.5t114.5 384t129 360.5t128.5 302h221q61 -131 127.5 -303t128 -360.5t113 -383t83.5 -372.5h-198q-18 98 -40 197.5t-48 201.5h-568q-27 -102 -49 -201.5t-39 -197.5h-188zM362 567 h478q-49 174 -105.5 346t-134.5 330q-74 -162 -131.5 -332t-106.5 -344z" />
<glyph unicode="&#xc8;" horiz-adv-x="1198" d="M365 1872h221l125 -297h-150zM184 0v1419h906v-180h-709v-422h651v-180h-651v-457h729v-180h-926z" />
<glyph unicode="&#xca;" horiz-adv-x="1198" d="M189 1575l366 741h164l367 -741h-183l-266 543l-266 -543h-182zM184 0v1419h906v-180h-709v-422h651v-180h-651v-457h729v-180h-926z" />
<glyph unicode="&#xcc;" horiz-adv-x="565" d="M13 1872h221l125 -297h-150zM184 0v1419h197v-1419h-197z" />
<glyph unicode="&#xce;" horiz-adv-x="565" d="M-166 1575l366 741h164l367 -741h-183l-266 543l-266 -543h-182zM184 0v1419h197v-1419h-197z" />
<glyph unicode="&#xd2;" horiz-adv-x="1497" d="M476 1872h221l125 -297h-150zM139 711q0 231 53.5 375.5t140.5 226.5t195.5 110.5t219.5 28.5t220 -28.5t196 -110.5t140.5 -226.5t53.5 -375.5t-53.5 -377t-140.5 -226.5t-196.5 -110.5t-219.5 -30q-111 0 -219.5 30t-195.5 110.5t-140.5 226.5t-53.5 377zM342 711 q0 -158 29.5 -267.5t83 -178t128 -99.5t165.5 -31q86 0 160.5 31t130 99.5t86 178t30.5 267.5q0 156 -29.5 265t-84 178t-129 99.5t-164.5 30.5q-86 0 -161 -30.5t-129.5 -98.5t-85 -177t-30.5 -267z" />
<glyph unicode="&#xd4;" horiz-adv-x="1497" d="M299 1575l366 741h164l367 -741h-183l-266 543l-266 -543h-182zM139 711q0 231 53.5 375.5t140.5 226.5t195.5 110.5t219.5 28.5t220 -28.5t196 -110.5t140.5 -226.5t53.5 -375.5t-53.5 -377t-140.5 -226.5t-196.5 -110.5t-219.5 -30q-111 0 -219.5 30t-195.5 110.5 t-140.5 226.5t-53.5 377zM342 711q0 -158 29.5 -267.5t83 -178t128 -99.5t165.5 -31q86 0 160.5 31t130 99.5t86 178t30.5 267.5q0 156 -29.5 265t-84 178t-129 99.5t-164.5 30.5q-86 0 -161 -30.5t-129.5 -98.5t-85 -177t-30.5 -267z" />
<glyph unicode="&#xd9;" horiz-adv-x="1398" d="M429 1872h221l125 -297h-150zM170 518v901h199v-942q0 -168 83 -255t248 -87q176 0 253 84t77 264v936h199v-901q0 -125 -29 -226.5t-91 -174t-161.5 -111.5t-240.5 -39q-121 0 -219.5 26.5t-169 90t-109.5 169t-39 265.5z" />
<glyph unicode="&#xdb;" horiz-adv-x="1398" d="M252 1575l366 741h164l367 -741h-183l-266 543l-266 -543h-182zM170 518v901h199v-942q0 -168 83 -255t248 -87q176 0 253 84t77 264v936h199v-901q0 -125 -29 -226.5t-91 -174t-161.5 -111.5t-240.5 -39q-121 0 -219.5 26.5t-169 90t-109.5 169t-39 265.5z" />
<glyph unicode="&#xe0;" horiz-adv-x="1136" d="M102 311q0 96 32 160t88.5 101.5t135 53t170.5 15.5h254v41q0 100 -67.5 151.5t-220.5 51.5q-43 0 -91.5 -2t-94.5 -5.5t-83 -7.5t-57 -6v140q76 25 173 41t204 16q121 0 201.5 -30t130 -82t71 -120.5t21.5 -146.5v-682h-138l-45 102q-27 -25 -63.5 -46t-79.5 -38.5 t-92 -27.5t-98 -10q-176 0 -263.5 92t-87.5 239zM281 313q0 -84 53 -131t147 -47q88 0 172 34t129 77v248h-278q-66 0 -109 -14.5t-68.5 -39t-35.5 -57.5t-10 -70zM332 1522h221l125 -297h-150z" />
<glyph unicode="&#xe2;" horiz-adv-x="1136" d="M97 1184l366 741h164l367 -741h-183l-266 543l-266 -543h-182zM102 311q0 96 32 160t88.5 101.5t135 53t170.5 15.5h254v41q0 100 -67.5 151.5t-220.5 51.5q-43 0 -91.5 -2t-94.5 -5.5t-83 -7.5t-57 -6v140q76 25 173 41t204 16q121 0 201.5 -30t130 -82t71 -120.5 t21.5 -146.5v-682h-138l-45 102q-27 -25 -63.5 -46t-79.5 -38.5t-92 -27.5t-98 -10q-176 0 -263.5 92t-87.5 239zM281 313q0 -84 53 -131t147 -47q88 0 172 34t129 77v248h-278q-66 0 -109 -14.5t-68.5 -39t-35.5 -57.5t-10 -70z" />
<glyph unicode="&#xe8;" horiz-adv-x="1097" d="M316 1481h221l125 -297h-150zM117 516q0 283 127 414t342 131q205 0 305 -113.5t100 -310.5q0 -45 -4 -95t-14 -91h-672q4 -168 87 -234.5t243 -66.5q90 0 180 10t150 26v-149q-76 -27 -165 -42t-180 -15q-252 0 -375.5 128.5t-123.5 407.5zM301 598h516v39 q0 139 -56 204.5t-186 65.5q-129 0 -199.5 -75.5t-74.5 -233.5z" />
<glyph unicode="&#xea;" horiz-adv-x="1097" d="M138 1184l366 741h164l367 -741h-183l-266 543l-266 -543h-182zM117 516q0 283 127 414t342 131q205 0 305 -113.5t100 -310.5q0 -45 -4 -95t-14 -91h-672q4 -168 87 -234.5t243 -66.5q90 0 180 10t150 26v-149q-76 -27 -165 -42t-180 -15q-252 0 -375.5 128.5 t-123.5 407.5zM301 598h516v39q0 139 -56 204.5t-186 65.5q-129 0 -199.5 -75.5t-74.5 -233.5z" />
<glyph unicode="&#xec;" horiz-adv-x="526" d="M-8 1891h221l125 -297h-150zM139 1350q0 121 125 120q125 0 125 -120q0 -121 -125 -121t-125 121zM168 0v1040h190v-1040h-190z" />
<glyph unicode="&#xee;" horiz-adv-x="526" d="M-184 1593l366 741h164l367 -741h-183l-266 543l-266 -543h-182zM139 1350q0 121 125 120q125 0 125 -120q0 -121 -125 -121t-125 121zM168 0v1040h190v-1040h-190z" />
<glyph unicode="&#xf2;" horiz-adv-x="1191" d="M117 520q0 258 112.5 399.5t366.5 141.5t366.5 -141.5t112.5 -399.5q0 -260 -112.5 -400t-366.5 -140t-366.5 140t-112.5 400zM311 520q0 -209 72 -301t213 -92q139 0 212 92t73 301t-74 298t-211 89q-139 0 -212 -89t-73 -298zM363 1522h221l125 -297h-150z" />
<glyph unicode="&#xf4;" horiz-adv-x="1191" d="M148 1184l366 741h164l367 -741h-183l-266 543l-266 -543h-182zM117 520q0 258 112.5 399.5t366.5 141.5t366.5 -141.5t112.5 -399.5q0 -260 -112.5 -400t-366.5 -140t-366.5 140t-112.5 400zM311 520q0 -209 72 -301t213 -92q139 0 212 92t73 301t-74 298t-211 89 q-139 0 -212 -89t-73 -298z" />
<glyph unicode="&#xf9;" horiz-adv-x="1210" d="M334 1481h221l125 -297h-150zM168 330v710h190v-688q0 -117 58.5 -163t158.5 -46q43 0 83 11.5t77 29t66.5 39t50.5 41.5v776h190v-1040h-135l-45 102q-18 -16 -49 -37.5t-72 -40t-90 -31.5t-104 -13q-186 0 -282.5 83t-96.5 267z" />
<glyph unicode="&#xfb;" horiz-adv-x="1210" d="M158 1184l366 741h164l367 -741h-183l-266 543l-266 -543h-182zM168 330v710h190v-688q0 -117 58.5 -163t158.5 -46q43 0 83 11.5t77 29t66.5 39t50.5 41.5v776h190v-1040h-135l-45 102q-18 -16 -49 -37.5t-72 -40t-90 -31.5t-104 -13q-186 0 -282.5 83t-96.5 267z" />
<glyph unicode="&#x152;" horiz-adv-x="2695" d="M1681 0v1419h906v-180h-709v-422h651v-180h-651v-457h729v-180h-926zM139 711q0 231 53.5 375.5t140.5 226.5t195.5 110.5t219.5 28.5t220 -28.5t196 -110.5t140.5 -226.5t53.5 -375.5t-53.5 -377t-140.5 -226.5t-196.5 -110.5t-219.5 -30q-111 0 -219.5 30t-195.5 110.5 t-140.5 226.5t-53.5 377zM342 711q0 -158 29.5 -267.5t83 -178t128 -99.5t165.5 -31q86 0 160.5 31t130 99.5t86 178t30.5 267.5q0 156 -29.5 265t-84 178t-129 99.5t-164.5 30.5q-86 0 -161 -30.5t-129.5 -98.5t-85 -177t-30.5 -267z" />
<glyph unicode="&#x153;" horiz-adv-x="2289" d="M1309 516q0 283 127 414t342 131q205 0 305 -113.5t100 -310.5q0 -45 -4 -95t-14 -91h-672q4 -168 87 -234.5t243 -66.5q90 0 180 10t150 26v-149q-76 -27 -165 -42t-180 -15q-252 0 -375.5 128.5t-123.5 407.5zM1493 598h516v39q0 139 -56 204.5t-186 65.5 q-129 0 -199.5 -75.5t-74.5 -233.5zM117 520q0 258 112.5 399.5t366.5 141.5t366.5 -141.5t112.5 -399.5q0 -260 -112.5 -400t-366.5 -140t-366.5 140t-112.5 400zM311 520q0 -209 72 -301t213 -92q139 0 212 92t73 301t-74 298t-211 89q-139 0 -212 -89t-73 -298z" />
<glyph unicode="&#x2c6;" horiz-adv-x="1040" d="M72 678l366 741h164l367 -741h-183l-266 543l-266 -543h-182z" />
<glyph unicode="&#x2000;" />
<glyph unicode="&#x2001;" horiz-adv-x="2334" />
<glyph unicode="&#x2002;" />
<glyph unicode="&#x2003;" horiz-adv-x="2334" />
<glyph unicode="&#x2004;" horiz-adv-x="778" />
<glyph unicode="&#x2005;" horiz-adv-x="583" />
<glyph unicode="&#x2006;" horiz-adv-x="389" />
<glyph unicode="&#x2007;" horiz-adv-x="389" />
<glyph unicode="&#x2008;" horiz-adv-x="290" />
<glyph unicode="&#x2009;" horiz-adv-x="466" />
<glyph unicode="&#x200a;" horiz-adv-x="129" />
<glyph unicode="&#x2010;" horiz-adv-x="706" d="M61 498v186h584v-186h-584z" />
<glyph unicode="&#x2011;" horiz-adv-x="706" d="M61 498v186h584v-186h-584z" />
<glyph unicode="&#x2012;" horiz-adv-x="706" d="M61 498v186h584v-186h-584z" />
<glyph unicode="&#x2013;" horiz-adv-x="1024" d="M-10 518v150h1044v-150h-1044z" />
<glyph unicode="&#x2014;" horiz-adv-x="2048" d="M-10 518v150h2068v-150h-2068z" />
<glyph unicode="&#x2018;" horiz-adv-x="540" d="M125 1137q0 18 3 43.5t14.5 61.5t34 86t61.5 118l43 76h141q-16 -31 -32.5 -70t-32 -76t-28 -68.5t-18.5 -50.5q37 -10 64.5 -34.5t27.5 -85.5q0 -63 -32.5 -98t-104.5 -35q-74 0 -107.5 33.5t-33.5 99.5z" />
<glyph unicode="&#x2019;" horiz-adv-x="540" d="M119 1022q14 31 31.5 68.5t33 74.5t27.5 70t18 51q-37 10 -64.5 35t-27.5 86q0 63 33 98t104 35q74 0 108 -33.5t34 -99.5q0 -18 -3 -44t-14.5 -61.5t-34 -86t-61.5 -117.5l-43 -76h-141z" />
<glyph unicode="&#x201c;" horiz-adv-x="929" d="M125 1137q0 18 3 43.5t14.5 61.5t34 86t61.5 118l43 76h141q-16 -31 -32.5 -70t-32 -76t-28 -68.5t-18.5 -50.5q37 -10 64.5 -34.5t27.5 -85.5q0 -63 -32.5 -98t-104.5 -35q-74 0 -107.5 33.5t-33.5 99.5zM514 1137q0 18 3 43.5t14.5 61.5t34 86t61.5 118l43 76h141 q-16 -31 -32.5 -70t-32 -76t-28 -68.5t-18.5 -50.5q37 -10 64.5 -34.5t27.5 -85.5q0 -63 -32.5 -98t-104.5 -35q-74 0 -107.5 33.5t-33.5 99.5z" />
<glyph unicode="&#x201d;" horiz-adv-x="929" d="M119 1022q14 31 31.5 68.5t33 74.5t27.5 70t18 51q-37 10 -64.5 35t-27.5 86q0 63 33 98t104 35q74 0 108 -33.5t34 -99.5q0 -18 -3 -44t-14.5 -61.5t-34 -86t-61.5 -117.5l-43 -76h-141zM508 1022q14 31 31.5 68.5t33 74.5t27.5 70t18 51q-37 10 -64.5 35t-27.5 86 q0 63 33 98t104 35q74 0 108 -33.5t34 -99.5q0 -18 -3 -44t-14.5 -61.5t-34 -86t-61.5 -117.5l-43 -76h-141z" />
<glyph unicode="&#x2026;" horiz-adv-x="1622" d="M1206 121q0 141 145 141t146 -141q0 -141 -146 -141q-145 0 -145 141zM666 121q0 141 145 141t146 -141q0 -141 -146 -141q-145 0 -145 141zM125 121q0 141 145 141t146 -141q0 -141 -146 -141q-145 0 -145 141z" />
<glyph unicode="&#x202f;" horiz-adv-x="466" />
<glyph unicode="&#x2039;" d="M143 518v146l883 380v-172l-666 -280l666 -283v-172z" />
<glyph unicode="&#x203a;" d="M184 137v172l666 283l-666 280v172l883 -380v-146z" />
<glyph unicode="&#x205f;" horiz-adv-x="583" />
<glyph unicode="&#x2122;" horiz-adv-x="2895" d="M1401 0v1419h217l439 -862l438 862h217v-1419h-190v1130l-383 -747h-181l-366 715v-1098h-191zM57 1239v180h1102v-180h-452v-1239h-197v1239h-453z" />
<glyph unicode="&#xe000;" horiz-adv-x="1040" d="M0 1040h1040v-1040h-1040v1040z" />
<glyph unicode="&#xfb01;" horiz-adv-x="1269" d="M882 1350q0 121 125 120q125 0 125 -120q0 -121 -125 -121t-125 121zM911 0v1040h190v-1040h-190zM74 883v157h151v162q0 70 23.5 131.5t68.5 107.5t112 72.5t155 26.5q33 0 66.5 -3t62 -7t51 -9t33.5 -8v-147q-10 2 -62.5 6t-118.5 4q-104 0 -152 -54t-48 -171v-111h276 v-157h-276v-883h-191v883h-151z" />
<glyph unicode="&#xfb02;" horiz-adv-x="1314" d="M911 260v1262h190v-1272q0 -68 39 -87.5t92 -19.5q16 0 28.5 1t23.5 1v-133q-25 -8 -56.5 -14t-85.5 -6q-109 0 -170 59t-61 209zM74 883v157h151v162q0 70 23.5 131.5t68.5 107.5t112 72.5t155 26.5q33 0 66.5 -3t62 -7t51 -9t33.5 -8v-147q-10 2 -62.5 6t-118.5 4 q-104 0 -152 -54t-48 -171v-111h276v-157h-276v-883h-191v883h-151z" />
<glyph unicode="&#xfb03;" horiz-adv-x="2013" d="M1626 1350q0 121 125 120q125 0 125 -120q0 -121 -125 -121t-125 121zM1655 0v1040h190v-1040h-190zM817 883v157h151v162q0 70 23.5 131.5t68.5 107.5t112 72.5t155 26.5q33 0 66.5 -3t62 -7t51 -9t33.5 -8v-147q-10 2 -62.5 6t-118.5 4q-104 0 -152 -54t-48 -171v-111 h276v-157h-276v-883h-191v883h-151zM74 883v157h151v162q0 70 23.5 131.5t68.5 107.5t112 72.5t155 26.5q33 0 66.5 -3t62 -7t51 -9t33.5 -8v-147q-10 2 -62.5 6t-118.5 4q-104 0 -152 -54t-48 -171v-111h276v-157h-276v-883h-191v883h-151z" />
<glyph unicode="&#xfb04;" horiz-adv-x="2058" d="M1655 260v1262h190v-1272q0 -68 39 -87.5t92 -19.5q16 0 28.5 1t23.5 1v-133q-25 -8 -56.5 -14t-85.5 -6q-109 0 -170 59t-61 209zM817 883v157h151v162q0 70 23.5 131.5t68.5 107.5t112 72.5t155 26.5q33 0 66.5 -3t62 -7t51 -9t33.5 -8v-147q-10 2 -62.5 6t-118.5 4 q-104 0 -152 -54t-48 -171v-111h276v-157h-276v-883h-191v883h-151zM74 883v157h151v162q0 70 23.5 131.5t68.5 107.5t112 72.5t155 26.5q33 0 66.5 -3t62 -7t51 -9t33.5 -8v-147q-10 2 -62.5 6t-118.5 4q-104 0 -152 -54t-48 -171v-111h276v-157h-276v-883h-191v883h-151z " />
</font>
</defs>
</svg>
