<?xml version="1.0" standalone="no"?>
<!DOCTYPE svg PUBLIC "-//W3C//DTD SVG 1.1//EN" "http://www.w3.org/Graphics/SVG/1.1/DTD/svg11.dtd" >
<svg xmlns="http://www.w3.org/2000/svg">
<metadata>
This is a custom SVG webfont generated by Font Squirrel.
Copyright   : Copyright 2011 Dalton Maag Ltd Modification of this file requires prior written permission from Dalton Maag Ltd
Designer    : Dalton Maag Ltd
Foundry     : Dalton Maag Ltd
Foundry URL : httpwwwdaltonmaagcom
</metadata>
<defs>
<font id="HPTextBetaBold" horiz-adv-x="1167" >
<font-face units-per-em="2048" ascent="1638" descent="-410" />
<missing-glyph horiz-adv-x="460" />
<glyph unicode=" "  horiz-adv-x="460" />
<glyph unicode="&#x09;" horiz-adv-x="460" />
<glyph unicode="&#xa0;" horiz-adv-x="460" />
<glyph unicode="!" horiz-adv-x="630" d="M123 152q0 86 44 123.5t148 37.5t147.5 -37.5t43.5 -123.5t-43 -124t-148 -38q-104 0 -148 38t-44 124zM158 1065v354h315v-354l-24 -623h-267z" />
<glyph unicode="&#x22;" horiz-adv-x="1009" d="M154 1520h290l-41 -539h-208zM566 1520h290l-41 -539h-208z" />
<glyph unicode="#" horiz-adv-x="1370" d="M51 309v252h221l45 297h-223v252h264l50 309h266l-49 -309h256l51 309h266l-47 -309h166v-252h-205l-49 -297h211v-252h-254l-47 -309h-266l47 309h-256l-49 -309h-267l51 309h-182zM537 561h256l51 297h-258z" />
<glyph unicode="$" d="M119 993q0 176 104.5 275.5t282.5 115.5v201h151v-192q125 0 213 -19.5t123 -34.5v-227q-59 10 -141 21.5t-195 13.5v-330l54 -16q74 -23 136 -51.5t109.5 -74.5t74 -116t26.5 -170q0 -82 -20.5 -149.5t-67.5 -119.5t-124 -86t-188 -46v-211h-151v203q-96 2 -201.5 15 t-171.5 38v243q43 -8 140.5 -25.5t228.5 -17.5h4v332l-72 23q-90 29 -150.5 66.5t-97 87t-52 111.5t-15.5 140zM383 1004q0 -31 5 -54.5t18.5 -43t37 -36t62.5 -28.5v303q-59 -10 -91 -48t-32 -93zM657 240q125 18 125 141q0 59 -25.5 97t-99.5 61v-299z" />
<glyph unicode="%" horiz-adv-x="1933" d="M72 1024q0 197 85 292t271 95t271 -95t85 -292t-85 -292t-271 -95t-271 95t-85 292zM313 1024q0 -92 24.5 -140t90.5 -48t90.5 48t24.5 140t-24.5 140t-90.5 48t-90.5 -48t-24.5 -140zM395 0l824 1399h319l-823 -1399h-320zM1149 373q0 197 85 292t271 95t271.5 -95.5 t85.5 -291.5q0 -197 -85 -292t-272 -95q-186 0 -271 95t-85 292zM1391 373q0 -92 24.5 -140.5t89.5 -48.5q66 0 90.5 48.5t24.5 140.5t-24.5 140t-90.5 48t-90 -48t-24 -140z" />
<glyph unicode="&#x26;" horiz-adv-x="1445" d="M70 358q0 80 17 142.5t53 113t91.5 92.5t130.5 80q-41 39 -66.5 81t-38.5 83t-18.5 82t-5.5 78q0 72 25 134.5t75 109.5t128 73.5t184 26.5q111 0 184.5 -28.5t116.5 -74.5t60.5 -104.5t17.5 -116.5q0 -74 -17.5 -129t-50 -98t-80 -79t-106.5 -68q20 -16 53 -46t69 -64 t72 -69l62 -63q23 43 36 100.5t17 114.5h250q-14 -145 -50 -238.5t-77 -154.5q31 -35 67 -80t68.5 -92t59 -90t43.5 -74h-303q-6 10 -18.5 27.5t-27.5 37.5l-31 38q-15 19 -28 32q-61 -49 -119.5 -79.5t-116 -48t-113.5 -22.5t-114 -5q-152 0 -248 37.5t-152 94t-77.5 123 t-21.5 123.5zM360 403q0 -92 60.5 -141t185.5 -49q66 0 131.5 16.5t124.5 75.5q-37 37 -79 80t-86 84t-87 80t-78 69q-39 -23 -70.5 -42t-54 -42.5t-35 -55.5t-12.5 -75zM498 1120q0 -115 106 -200q150 66 150 198q0 57 -28 91t-85 34q-74 0 -108.5 -36t-34.5 -87z" />
<glyph unicode="'" horiz-adv-x="598" d="M154 1520h290l-41 -539h-208z" />
<glyph unicode="(" horiz-adv-x="755" d="M131 578q0 545 275 944h309q-68 -127 -116 -244t-79 -231.5t-46 -230.5t-15 -238q0 -123 15 -239t46 -231.5t79 -232.5t116 -244h-309q-139 203 -207 435.5t-68 511.5z" />
<glyph unicode=")" horiz-adv-x="747" d="M41 -369q68 127 116 244t78.5 232.5t46 231.5t15.5 239t-15.5 238.5t-46 230t-78.5 231.5t-116 244h309q274 -399 275 -944q0 -279 -68 -511.5t-207 -435.5h-309z" />
<glyph unicode="*" horiz-adv-x="888" d="M53 1065l70 209l239 -100l-22 245h221l-22 -243l239 96l70 -203l-256 -57l184 -207l-176 -127l-151 240l-152 -240l-170 127l178 201z" />
<glyph unicode="+" d="M106 465v256h345v352h266v-352h344v-256h-344v-356h-266v356h-345z" />
<glyph unicode="," horiz-adv-x="614" d="M90 -295l125 291q-98 29 -98 147q0 86 48 126t142 40t142.5 -40t48.5 -126q0 -23 -3 -45t-15.5 -55t-34 -76t-58.5 -104l-92 -158h-205z" />
<glyph unicode="-" horiz-adv-x="804" d="M53 457v266h699v-266h-699z" />
<glyph unicode="." horiz-adv-x="614" d="M117 143q0 86 48 126t142 40t142.5 -40t48.5 -126t-48.5 -126t-142.5 -40t-142 40t-48 126z" />
<glyph unicode="/" horiz-adv-x="884" d="M-4 -369l510 1891h323l-510 -1891h-323z" />
<glyph unicode="0" d="M76 698q0 203 29.5 340.5t91 222.5t158 121.5t229.5 36.5t229 -36.5t157.5 -121.5t90.5 -222.5t29 -340.5t-29 -340t-90.5 -222t-157.5 -122t-229 -37t-229.5 37t-158 122t-91 222t-29.5 340zM391 698q0 -133 8.5 -223t30 -145.5t58 -79t96.5 -23.5q61 0 98 23.5t58.5 79 t28.5 145.5t7 223t-7 223.5t-28.5 145.5t-58.5 78.5t-98 23.5q-59 0 -96 -23.5t-58.5 -78.5t-30 -145.5t-8.5 -223.5z" />
<glyph unicode="1" d="M168 891v291l539 237h127v-1419h-314v1026z" />
<glyph unicode="2" d="M94 0v82q0 190 68.5 330.5t226.5 255.5l143 104q94 68 135.5 115t41.5 112q0 76 -46.5 113t-173.5 37q-59 0 -117.5 -6t-107.5 -14.5t-86 -17.5l-53 -13v245q10 2 43 14.5t87 27t130 24.5t170 10q229 0 348 -93t119 -300q0 -94 -22.5 -161.5t-58.5 -117t-78 -83 t-81 -62.5l-151 -110q-29 -20 -58.5 -45t-56.5 -52.5t-45 -59.5t-25 -69h580v-266h-932z" />
<glyph unicode="3" d="M88 45v246q47 -10 151.5 -29.5t258.5 -19.5q139 0 195.5 37.5t56.5 123.5q0 45 -14.5 78t-48.5 53.5t-93 30.5t-148 10h-110v269h110q82 0 135.5 9t84 28.5t43 50.5t12.5 74q0 78 -49 114.5t-172 36.5q-127 0 -228.5 -20.5t-148.5 -28.5v242q10 4 43 15t84 23.5 t119.5 21.5t150.5 9q102 0 191.5 -18.5t156 -62.5t104.5 -115.5t38 -178.5q0 -49 -13.5 -98t-42 -92t-78 -80t-118.5 -61q86 -18 141 -53t89 -82.5t47.5 -102.5t13.5 -117q0 -106 -39 -179t-112 -117t-174 -63t-224 -19q-82 0 -153 9t-125 20t-89 21.5t-45 14.5z" />
<glyph unicode="4" d="M80 260v270q45 94 108.5 202t137 219.5t154.5 225t163 222.5h318v-889h139v-250h-139v-260h-287v260h-594zM340 510h334v520q-117 -154 -199 -278.5t-135 -241.5z" />
<glyph unicode="5" d="M143 39v246q47 -10 150.5 -26.5t245.5 -16.5q129 0 178 44t49 136q0 35 -7 68.5t-33 59t-78 42t-140 16.5q-113 0 -196 -4t-128 -8l27 803h793v-266h-525l-10 -285q33 4 67.5 5t57.5 1q135 0 225 -34t144.5 -92t78 -137t23.5 -171q0 -88 -21.5 -168t-78 -140.5 t-156.5 -96t-260 -35.5q-178 0 -274.5 23.5t-131.5 35.5z" />
<glyph unicode="6" d="M86 649q0 238 42 388.5t119 235.5t185.5 115.5t241.5 30.5q66 0 122 -8t99 -19.5t70.5 -21.5t35.5 -14v-223q-23 4 -100.5 17t-200.5 13q-66 0 -122 -9t-98 -40t-68.5 -90t-30.5 -162q23 12 89.5 36t172.5 24q147 0 236.5 -43t138.5 -110t64.5 -148.5t15.5 -159.5 q0 -90 -22.5 -176t-78 -155t-150.5 -111t-241 -42q-170 0 -272.5 59.5t-157.5 155t-72.5 215t-17.5 242.5zM379 598q0 -109 14.5 -181.5t43 -116.5t70.5 -62.5t97 -18.5q63 0 103.5 19.5t64 53.5t31.5 79t8 94q0 121 -48 169t-161 48q-78 0 -133 -22.5t-90 -45.5v-16z" />
<glyph unicode="7" d="M82 1124v275h973v-269q-78 -141 -142.5 -277t-123 -272.5t-110.5 -279.5t-104 -301h-352q51 162 106.5 302t116 274.5t127 267.5t142.5 280h-633z" />
<glyph unicode="8" d="M55 381q0 43 9.5 95t38 101.5t81 89.5t135.5 58q-104 31 -163.5 110.5t-59.5 213.5q0 76 25.5 143.5t83 117.5t151 79.5t228.5 29.5t228 -29.5t150.5 -79.5t83 -118t25.5 -143q0 -133 -59.5 -213t-163.5 -111q84 -18 136 -58t81 -89.5t38 -101.5t9 -95 q0 -188 -125 -294.5t-403 -106.5q-139 0 -239.5 27.5t-165 79.5t-94.5 126t-30 168zM367 408q0 -98 51 -146.5t166 -48.5t166 48t51 147q0 35 -8.5 70.5t-33 63t-66.5 45t-109 17.5q-68 0 -110 -17.5t-66.5 -45t-32.5 -63t-8 -70.5zM383 1018q0 -33 8 -65.5t29.5 -58.5 t61.5 -42t102 -16q61 0 101 16t61.5 42t29.5 58.5t8 65.5q0 90 -48 134t-152 44t-152.5 -44t-48.5 -134z" />
<glyph unicode="9" d="M70 938q0 88 22.5 175t77.5 155.5t150.5 110.5t240.5 42q170 0 272.5 -59t158 -154.5t72.5 -215.5t17 -242q0 -238 -42 -388.5t-118.5 -235.5t-185 -115.5t-241.5 -30.5q-66 0 -122.5 8t-99.5 18t-70.5 21.5t-35.5 15.5v223q23 -4 100.5 -17t200.5 -13q66 0 122 9 t98 39.5t68.5 90t30.5 162.5q-23 -12 -89 -36t-173 -24q-147 0 -236 43t-138.5 109.5t-64.5 148.5t-15 160zM356 934q0 -121 48.5 -169t160.5 -48q78 0 133.5 22.5t89.5 44.5v17q0 109 -14 181.5t-43 116.5t-71 62.5t-97 18.5q-63 0 -103 -19.5t-63.5 -53.5t-32 -79 t-8.5 -94z" />
<glyph unicode=":" horiz-adv-x="614" d="M117 143q0 86 48 126t142 40t142.5 -40t48.5 -126t-48.5 -126t-142.5 -40t-142 40t-48 126zM117 913q0 86 48 126t142 40t142.5 -40t48.5 -126t-48.5 -126t-142.5 -40t-142 40t-48 126z" />
<glyph unicode=";" horiz-adv-x="614" d="M90 -295l125 291q-98 29 -98 147q0 86 48 126t142 40t142.5 -40t48.5 -126q0 -23 -3 -45t-15.5 -55t-34 -76t-58.5 -104l-92 -158h-205zM117 913q0 86 48 126t142 40t142.5 -40t48.5 -126t-48.5 -126t-142.5 -40t-142 40t-48 126z" />
<glyph unicode="&#x3c;" d="M119 487v207l928 371v-283l-529 -190l529 -193v-282z" />
<glyph unicode="=" d="M123 246v231h921v-231h-921zM123 707v231h921v-231h-921z" />
<glyph unicode="&#x3e;" d="M119 117v282l528 193l-528 190v283l928 -371v-207z" />
<glyph unicode="?" horiz-adv-x="921" d="M53 1143v241q20 6 58.5 16.5t87.5 18.5t107.5 14.5t119.5 6.5q125 0 213 -30t142.5 -79t79 -114.5t24.5 -135.5q0 -117 -43 -195.5t-109 -137.5q-59 -55 -100 -91t-66.5 -68t-39 -64.5t-15.5 -82.5h-285v33q0 92 33 172t135 168q51 43 86 75t56.5 58.5t31 53t9.5 61.5 q0 47 -41 77.5t-148 30.5q-68 0 -126 -4t-103 -9t-73 -10t-34 -5zM180 152q0 86 44 123.5t149 37.5q104 0 147 -37.5t43 -123.5t-43 -124t-147 -38t-148.5 38t-44.5 124z" />
<glyph unicode="@" horiz-adv-x="1937" d="M117 457q0 221 62.5 398t184 300t298 189.5t403.5 66.5q168 0 306 -39t238.5 -121t156 -210t55.5 -304q0 -127 -29 -245.5t-92.5 -211t-163.5 -148.5t-244 -56h-157q-16 31 -22.5 49t-14.5 53q-59 -53 -126 -82.5t-157 -29.5q-72 0 -124 25.5t-88 71.5t-53.5 106.5 t-17.5 131.5q0 127 32 242t97.5 201t166 137t239.5 51q68 0 124 -10t100 -25.5t76 -32t54 -28.5l-88 -430q-10 -49 -15 -84t-7 -76q0 -14 1 -23.5t3 -17.5h26q68 0 114 37t73.5 98.5t40 140t12.5 164.5q0 100 -26.5 184.5t-89 142.5t-165 91t-251.5 33q-170 0 -299 -53 t-217.5 -150.5t-132.5 -234.5t-44 -307q0 -129 32 -235.5t107.5 -181.5t202.5 -117t316 -42q131 0 236.5 10.5t162.5 18.5l-24 -191q-45 -10 -155 -27.5t-269 -17.5q-186 0 -342 41t-268.5 134.5t-175 244t-62.5 369.5zM803 453q0 -86 19.5 -119t60.5 -33q59 0 99 23.5 t67 54.5l84 407q-23 8 -46.5 11.5t-60.5 3.5q-63 0 -106 -38t-69 -93.5t-37 -114.5t-11 -102z" />
<glyph unicode="A" horiz-adv-x="1286" d="M33 0q37 178 89 372.5t112.5 384t124 360.5t122.5 302h324q59 -131 122.5 -302t124 -360.5t113 -384t88.5 -372.5h-325q-10 49 -18.5 92t-16.5 85t-18.5 86t-22.5 95h-428q-12 -51 -21.5 -95t-18.5 -86t-17.5 -85t-16.5 -92h-317zM483 612h312q-16 57 -29.5 104.5 t-30 98.5t-39 112.5t-57.5 145.5q-35 -84 -57.5 -145.5t-39 -112.5t-30 -98.5t-29.5 -104.5z" />
<glyph unicode="B" horiz-adv-x="1318" d="M176 0v1417q18 2 65.5 6t115 8.5t150.5 6.5t173 2q111 0 203 -18.5t158.5 -61.5t102.5 -116t36 -179q0 -109 -51.5 -190.5t-143.5 -129.5q111 -29 179.5 -114.5t68.5 -227.5q0 -121 -45 -198.5t-120 -122.5t-172 -63.5t-200 -18.5h-520zM483 236h142q68 0 123 6t95 24.5 t62.5 51t22.5 88.5q0 102 -67.5 155t-205.5 53h-172v-378zM483 856h119q156 0 214 54.5t58 144.5q0 37 -11 66.5t-39.5 51t-76 33t-120.5 11.5q-53 0 -88 -1.5t-56 -3.5v-356z" />
<glyph unicode="C" horiz-adv-x="1261" d="M131 707q0 221 56.5 365.5t148.5 229t211 117.5t244 33q119 0 209 -18.5t126 -34.5v-240q-121 18 -307 19q-184 0 -273 -114t-89 -353q0 -127 22.5 -215t66.5 -143.5t110.5 -81t154.5 -25.5q104 0 182 5t142 13v-244q-80 -27 -164 -40t-189 -13q-111 0 -226.5 28 t-209.5 108.5t-154.5 225.5t-60.5 378z" />
<glyph unicode="D" horiz-adv-x="1474" d="M176 0v1417q23 2 78 7.5t118.5 8.5t125 6t96.5 3q156 0 293 -25.5t238.5 -104.5t159.5 -222.5t58 -378.5q0 -203 -52 -340.5t-148 -219t-233.5 -116.5t-305.5 -35h-428zM492 262h81q100 0 182.5 19.5t140.5 69.5t90 138.5t32 225.5q0 152 -30 244t-85 142t-131 66.5 t-168 16.5h-62q-28 0 -50 -4v-918z" />
<glyph unicode="E" horiz-adv-x="1263" d="M176 0v1419h987v-258h-671v-305h610v-258h-610v-340h692v-258h-1008z" />
<glyph unicode="F" horiz-adv-x="1216" d="M176 0v1419h981v-258h-665v-307h595v-258h-595v-596h-316z" />
<glyph unicode="G" horiz-adv-x="1357" d="M131 707q0 233 60.5 379.5t160 227.5t225 109.5t254.5 28.5q51 0 106.5 -5t104 -12.5t82 -14.5t41.5 -9v-248q-18 2 -50 6.5t-73 6.5t-88 4t-94 2q-215 0 -309 -115t-94 -356q0 -92 14 -178.5t53 -152t107.5 -105t175.5 -39.5q41 0 78 1t55 5v301h-190v254h473v-789 q-27 -6 -73 -13t-101.5 -13.5t-116 -10.5t-117.5 -4q-113 0 -233.5 25.5t-221 104.5t-165 224.5t-64.5 385.5z" />
<glyph unicode="H" horiz-adv-x="1503" d="M176 0v1419h316v-545h520v545h315v-1419h-315v606h-520v-606h-316z" />
<glyph unicode="I" horiz-adv-x="667" d="M176 0v1419h316v-1419h-316z" />
<glyph unicode="J" horiz-adv-x="1091" d="M49 311q18 -6 52 -16t78 -19.5t95.5 -15.5t106.5 -6q111 0 171 61.5t60 196.5v907h316v-915q0 -145 -33 -246.5t-96.5 -166t-157.5 -94.5t-219 -30q-68 0 -120 5t-95 15.5t-80 26t-76 35.5z" />
<glyph unicode="K" horiz-adv-x="1327" d="M176 0v1419h316v-571q68 72 120 140.5t97 137t89 141t93 152.5h371q-33 -59 -84.5 -142t-114 -177t-136 -189.5t-151.5 -175.5q154 -152 280 -335t251 -400h-377q-53 88 -104.5 166t-103.5 151.5t-109.5 145.5t-120.5 147v-610h-316z" />
<glyph unicode="L" horiz-adv-x="1165" d="M176 0v1419h318v-1140h622v-279h-940z" />
<glyph unicode="M" horiz-adv-x="1724" d="M176 0v1419h346l340 -717l340 717h346v-1419h-305v932l-264 -565h-240l-258 548v-915h-305z" />
<glyph unicode="N" horiz-adv-x="1474" d="M176 0v1419h316q59 -96 124.5 -208.5t130 -229.5t127 -232.5t117.5 -216.5v887h307v-1419h-311q-59 113 -124.5 234.5t-131 241.5t-130 232.5t-120.5 209.5v-918h-305z" />
<glyph unicode="O" horiz-adv-x="1552" d="M131 711q0 219 52.5 362.5t141.5 227t205.5 117.5t245.5 34t246 -34t206 -117.5t141 -227t52 -362.5t-52 -362.5t-141 -227.5t-206 -118t-246 -34t-245.5 34t-205.5 118t-141.5 227.5t-52.5 362.5zM457 711q0 -252 85 -362.5t234 -110.5q150 0 235 110.5t85 362.5 t-85 362.5t-235 110.5t-234.5 -110.5t-84.5 -362.5z" />
<glyph unicode="P" horiz-adv-x="1239" d="M176 0v1417q98 14 210 23.5t228 9.5q133 0 235.5 -24.5t173.5 -82t106.5 -148.5t35.5 -224q0 -127 -36.5 -215t-102 -143.5t-156 -81t-196.5 -25.5q-51 0 -102.5 5t-79.5 9v-520h-316zM492 756q47 -10 85.5 -11.5t84.5 -1.5q86 0 138 55.5t52 159.5q0 127 -53.5 176.5 t-153.5 49.5h-64q-42 0 -89 -4v-424z" />
<glyph unicode="Q" horiz-adv-x="1552" d="M131 711q0 219 52.5 362.5t141.5 227t205.5 117.5t245.5 34t246 -34t206 -117.5t141 -227t52 -362.5q0 -141 -22.5 -250t-62.5 -191t-96 -138t-124 -91q49 -57 90 -117.5t73 -116t54.5 -101.5t36.5 -75h-356q-33 76 -84 162t-121 176h-33q-129 0 -245.5 34t-205.5 118 t-141.5 227.5t-52.5 362.5zM457 711q0 -252 85 -362.5t234 -110.5q150 0 235 110.5t85 362.5t-85 362.5t-235 110.5t-234.5 -110.5t-84.5 -362.5z" />
<glyph unicode="R" horiz-adv-x="1298" d="M176 0v1417q18 2 60.5 8.5t99.5 11.5t129 9t149 4q125 0 227.5 -23.5t176.5 -78t113.5 -140.5t39.5 -209q0 -145 -66.5 -235t-174.5 -148q55 -80 102 -164.5t85 -166.5t67.5 -156t52.5 -129h-338q-20 49 -51 122t-67 149.5t-73.5 150.5t-72.5 127h-73q-36 0 -73 2v-551 h-313zM489 803q41 -4 71 -4h71q129 0 178 52t49 146q0 98 -51 150.5t-172 52.5q-66 0 -97.5 -1t-48.5 -3v-393z" />
<glyph unicode="S" horiz-adv-x="1132" d="M86 1038q0 414 543 414q127 0 219 -20.5t127 -34.5v-240q-61 10 -154.5 20.5t-204.5 10.5q-117 0 -165 -34t-48 -110q0 -61 33 -97t113 -64l121 -43q78 -27 144.5 -59.5t115.5 -83t76.5 -126t27.5 -188.5q0 -90 -27.5 -167t-92 -132t-169 -86t-258.5 -31q-47 0 -101 4 t-106.5 11.5t-99.5 17.5t-80 23v256q20 -4 59.5 -9.5t89.5 -10.5t108.5 -9t119.5 -4q125 0 179.5 29.5t54.5 103.5q0 39 -11.5 65.5t-33 47t-56.5 36t-80 31.5l-120 43q-94 33 -157 73t-99.5 92t-52 118.5t-15.5 152.5z" />
<glyph unicode="T" horiz-adv-x="1282" d="M49 1141v278h1184v-278h-434v-1141h-316v1141h-434z" />
<glyph unicode="U" horiz-adv-x="1460" d="M164 555v864h315v-899q0 -129 59.5 -204.5t190.5 -75.5t191.5 74.5t60.5 205.5v899h315v-864q0 -160 -34.5 -272.5t-103 -182t-173 -101.5t-246.5 -32q-150 0 -258 32t-179 101.5t-104.5 182t-33.5 272.5z" />
<glyph unicode="V" horiz-adv-x="1282" d="M33 1419h329q31 -162 67 -316.5t73 -292.5t73.5 -253t71.5 -197q33 82 71 197t74.5 253t72.5 292.5t67 316.5h317q-74 -356 -188.5 -719.5t-257.5 -699.5h-324q-143 336 -257.5 699.5t-188.5 719.5z" />
<glyph unicode="W" horiz-adv-x="1781" d="M70 1419h317q12 -127 26.5 -240.5t34 -229t44 -241.5t55.5 -278l198 905h304l198 -905q31 152 55.5 278t44 241.5t34 229t26.5 240.5h305q-20 -182 -46 -358t-60.5 -351t-78.5 -351.5t-100 -358.5h-329l-211 911l-207 -911h-326q-55 182 -99 358.5t-79 351.5t-60.5 351 t-45.5 358z" />
<glyph unicode="X" horiz-adv-x="1335" d="M86 0q14 92 55 191.5t95.5 196.5t114 184t112.5 155q-61 82 -117.5 170t-104.5 177t-83 176t-52 169h340q10 -47 34 -110.5t56.5 -133t73.5 -140t84 -132.5q39 53 79 120t74 136.5t59.5 137t37.5 122.5h303q-47 -205 -136 -372.5t-200 -315.5q135 -195 222.5 -381 t115.5 -350h-344q-20 86 -43.5 157.5t-52.5 136t-63.5 125t-75.5 124.5q-82 -115 -146.5 -243t-117.5 -300h-320z" />
<glyph unicode="Y" horiz-adv-x="1228" d="M39 1419h346q53 -203 112.5 -345t125.5 -240q84 129 139 274t96 311h332q-61 -215 -171 -437t-249 -423v-559h-315v559q-139 201 -248 423t-168 437z" />
<glyph unicode="Z" horiz-adv-x="1169" d="M82 0v252q43 76 111.5 183.5t151.5 229t173 247.5t174 237h-586v270h971v-237q-96 -121 -191 -253t-179 -255t-151 -228.5t-103 -173.5h624v-272h-995z" />
<glyph unicode="[" horiz-adv-x="833" d="M176 -369v1891h584v-269h-273v-1353h273v-269h-584z" />
<glyph unicode="\" horiz-adv-x="884" d="M55 1522h324l510 -1891h-324z" />
<glyph unicode="]" horiz-adv-x="833" d="M74 -100h272v1353h-272v269h583v-1891h-583v269z" />
<glyph unicode="^" horiz-adv-x="980" d="M18 678l369 741h205l369 -741h-308l-164 342l-165 -342h-306z" />
<glyph unicode="_" horiz-adv-x="1024" d="M-10 -125h1044v-244h-1044v244z" />
<glyph unicode="`" horiz-adv-x="428" d="M-45 1522h283l122 -320h-208z" />
<glyph unicode="a" horiz-adv-x="1210" d="M98 334q0 100 38 162.5t102.5 98.5t150.5 48t184 12h181v35q0 72 -55.5 114t-184.5 42q-117 0 -214 -10.5t-140 -16.5v201q68 25 175 42t249 17q127 0 216 -26.5t144 -75.5t81 -119t26 -158v-700h-217l-46 88q-59 -51 -144 -77.5t-177 -26.5q-186 0 -277.5 95t-91.5 255z M383 338q0 -55 36 -86t103 -31q66 0 129.5 18.5t100.5 51.5v164h-193q-94 0 -135 -32t-41 -85z" />
<glyph unicode="b" horiz-adv-x="1255" d="M160 66v1456h307v-510q59 37 127 52t135 15q94 0 171 -33.5t132 -102.5t85 -175t30 -252q0 -285 -129 -413t-389 -128q-74 0 -143.5 7.5t-131 19.5t-111.5 29t-83 35zM467 244q27 -4 66.5 -8.5t97.5 -4.5q92 0 147.5 65.5t55.5 219.5q0 135 -39 222t-138 87 q-72 0 -116.5 -17t-73.5 -44v-520z" />
<glyph unicode="c" horiz-adv-x="1001" d="M109 526q0 283 120.5 418t378.5 135q98 0 175 -19.5t130 -43.5v-217q-72 10 -139 17t-123 7q-49 0 -91 -12t-71.5 -45t-47 -91.5t-17.5 -148.5q0 -102 19.5 -160.5t50 -89t69.5 -39t76 -8.5q86 0 154.5 8.5t134.5 18.5v-209q-53 -25 -136 -48.5t-188 -23.5 q-244 0 -369.5 130t-125.5 421z" />
<glyph unicode="d" horiz-adv-x="1255" d="M109 526q0 289 125.5 421t349.5 132q57 0 114.5 -12t89.5 -25v480h308v-1522h-217l-45 88q-45 -41 -118 -72.5t-198 -31.5q-90 0 -164.5 31.5t-129 97t-85 169t-30.5 244.5zM422 526q0 -86 13.5 -141t38 -89t57 -47t71.5 -13q66 0 112 21.5t74 45.5v502q-35 8 -79.5 14 t-87.5 6q-100 0 -149.5 -66.5t-49.5 -232.5z" />
<glyph unicode="e" horiz-adv-x="1171" d="M109 526q0 262 131 407.5t383 145.5q119 0 203.5 -35.5t140 -97t81 -143.5t25.5 -174q0 -45 -8 -105.5t-21 -97.5h-626q8 -111 72.5 -167t205.5 -56q86 0 176.5 11t176.5 28v-205q-66 -23 -167.5 -42.5t-236.5 -19.5q-262 0 -399 139.5t-137 411.5zM412 623h395 q0 113 -46 165t-147 52q-86 0 -142 -53t-60 -164z" />
<glyph unicode="f" horiz-adv-x="788" d="M61 803v258h123v117q0 193 92.5 277.5t278.5 84.5q45 0 89 -3t84 -7t73 -10.5t53 -12.5v-227q-57 6 -121.5 7t-103.5 1q-137 0 -137 -123v-104h256v-258h-256v-803h-308v803h-123z" />
<glyph unicode="g" horiz-adv-x="1261" d="M113 547q0 530 551 530q137 0 267 -13t265 -48v-197h-102v-813q0 -188 -126 -291.5t-378 -103.5q-147 0 -241.5 13.5t-147.5 29.5v231q84 -10 161.5 -16t176.5 -6q76 0 124 11t75.5 31.5t37.5 51.5t10 72v61q-29 -14 -82 -30.5t-120 -16.5q-246 0 -358.5 118t-112.5 386z M424 551q0 -74 15.5 -123t41 -80t60 -44t73.5 -13q66 0 106 12t66 25v495q-25 4 -54.5 5t-72.5 1q-55 0 -98 -13t-73.5 -45t-47 -85t-16.5 -135z" />
<glyph unicode="h" horiz-adv-x="1286" d="M160 0v1520h307v-529q68 49 144.5 68.5t170.5 19.5q344 0 344 -377v-702h-307v668q0 82 -39 117.5t-123 35.5q-55 0 -101 -18.5t-89 -50.5v-752h-307z" />
<glyph unicode="i" horiz-adv-x="626" d="M141 1341q0 76 37 112t135 36t135 -36t37 -112t-36.5 -111.5t-135.5 -35.5q-98 0 -135 35.5t-37 111.5zM160 0v1061h307v-1061h-307z" />
<glyph unicode="j" horiz-adv-x="626" d="M-104 -131q70 -6 129 -6q66 0 100.5 25.5t34.5 105.5v1067h307v-1106q0 -92 -27.5 -157.5t-74 -106.5t-107.5 -60.5t-129 -19.5q-92 0 -152.5 10t-80.5 17v231zM141 1341q0 76 37 112t135 36t135 -36t37 -112t-36.5 -111.5t-135.5 -35.5q-98 0 -135 35.5t-37 111.5z" />
<glyph unicode="k" horiz-adv-x="1157" d="M160 0v1522h307v-854q117 96 194.5 194.5t137.5 198.5h327q-31 -61 -73.5 -127t-95 -130.5t-111 -126t-115.5 -116.5q59 -53 116.5 -118.5t110 -139.5t98.5 -151.5t81 -151.5h-342q-23 45 -58 100.5t-78 113.5t-92 115.5t-100 104.5v-434h-307z" />
<glyph unicode="l" horiz-adv-x="690" d="M160 315v1207h307v-1200q0 -33 10 -50.5t25.5 -26.5t36 -11.5t43.5 -2.5q14 0 41.5 1t44.5 1v-225q-49 -10 -96.5 -14t-112.5 -4q-133 0 -216 77.5t-83 247.5z" />
<glyph unicode="m" horiz-adv-x="1890" d="M160 0v1061h241l29 -92q74 59 148.5 84.5t175.5 25.5q203 0 286 -135q59 63 153.5 99t199.5 36q178 0 258 -90t80 -270v-719h-308v684q0 63 -37.5 100t-103.5 37q-47 0 -96 -19.5t-90 -49.5q2 -16 3 -36t1 -40v-676h-307v684q0 63 -37 100t-105 37q-45 0 -94 -18.5 t-90 -50.5v-752h-307z" />
<glyph unicode="n" horiz-adv-x="1286" d="M160 0v1061h241l29 -92q74 59 160 84.5t192 25.5q344 0 344 -377v-702h-307v668q0 82 -39 117.5t-123 35.5q-55 0 -101 -18.5t-89 -50.5v-752h-307z" />
<glyph unicode="o" horiz-adv-x="1236" d="M109 526q0 266 122.5 408.5t386.5 142.5t387 -142t123 -409q0 -266 -122.5 -408.5t-387.5 -142.5q-264 0 -386.5 142.5t-122.5 408.5zM424 526q0 -160 43 -230.5t151 -70.5q109 0 152 71t43 230q0 160 -43 230.5t-152 70.5t-151.5 -70.5t-42.5 -230.5z" />
<glyph unicode="p" horiz-adv-x="1257" d="M66 819v197q135 35 265 48t267 13q551 0 551 -551q0 -274 -112.5 -406t-358.5 -132q-18 0 -47 3t-57.5 8t-55 11t-43.5 13v-392h-307v1188h-102zM475 262q29 -8 73 -14t91 -6q88 0 142.5 64.5t54.5 223.5q0 88 -16.5 144.5t-46.5 89.5t-73 46t-98 13q-43 0 -72.5 -1 t-54.5 -5v-555z" />
<glyph unicode="q" horiz-adv-x="1257" d="M109 526q0 551 550 551q137 0 267.5 -13t265.5 -48v-197h-102v-1188h-308v410q-33 -16 -92 -34.5t-137 -18.5q-229 0 -336.5 132t-107.5 406zM422 530q0 -160 49 -224t135 -64q66 0 108 12t68 25v538q-25 4 -54.5 5t-72.5 1q-55 0 -98 -13t-72.5 -46t-46 -89.5 t-16.5 -144.5z" />
<glyph unicode="r" horiz-adv-x="892" d="M160 0v1061h239l33 -105q63 63 152.5 89t163.5 26q29 0 61.5 -1t52.5 -5v-266q-23 2 -50.5 3t-63.5 1q-59 0 -103.5 -10.5t-78.5 -25.5t-57.5 -35.5t-41.5 -39.5v-692h-307z" />
<glyph unicode="s" horiz-adv-x="1085" d="M98 750q0 100 34 164.5t94.5 101.5t141.5 50t177 13q139 0 239.5 -18.5t159.5 -42.5v-211q-68 10 -119 16t-92 10.5t-74.5 5.5t-66.5 1q-66 0 -104.5 -3t-60 -12.5t-29 -26t-7.5 -40.5q0 -25 9.5 -40.5t33 -26.5t63.5 -21.5t99 -22.5q70 -14 138.5 -33.5t123.5 -55.5 t90 -95.5t35 -155.5q0 -100 -34 -164.5t-92 -101.5t-137 -51.5t-167 -14.5q-166 0 -267.5 18.5t-176.5 43.5v215q94 -16 186 -25.5t197 -9.5q113 0 153.5 14.5t40.5 71.5q0 25 -9 41t-32.5 27.5t-62.5 21.5t-99 23q-94 18 -165.5 40.5t-121 58.5t-74 92.5t-24.5 142.5z" />
<glyph unicode="t" horiz-adv-x="903" d="M57 803v258h164v280h307v-280h287v-258h-287v-430q0 -53 14.5 -81t37 -42t51 -16.5t57.5 -2.5q33 0 84 2.5t90 6.5v-220q-23 -10 -58.5 -17t-74.5 -12t-76 -8t-61 -3q-104 0 -175 25.5t-115 74.5t-62.5 122.5t-18.5 170.5v430h-164z" />
<glyph unicode="u" horiz-adv-x="1286" d="M160 344v717h307v-682q0 -78 42 -110.5t128 -32.5q47 0 94 18t88 47v760h307v-1061h-217l-45 88q-20 -20 -55 -40.5t-78 -36t-92 -25t-100 -9.5q-86 0 -156 19.5t-120 63.5t-76.5 114t-26.5 170z" />
<glyph unicode="v" horiz-adv-x="1097" d="M33 1061h319q12 -78 31.5 -174t45.5 -195.5t56.5 -198t67.5 -182.5q37 84 67.5 182.5t56 198t45 195.5t32.5 174h311q-39 -260 -134 -533.5t-216 -527.5h-332q-121 254 -216 527.5t-134 533.5z" />
<glyph unicode="w" horiz-adv-x="1589" d="M45 1061h313q6 -68 15.5 -159t26 -191.5t38 -204t51.5 -197.5l183 670h258l182 -670q31 94 52.5 197.5t38 204t25.5 191.5t15 159h301q-31 -262 -91 -533.5t-173 -527.5h-315l-170 627l-170 -627h-316q-113 256 -173 527.5t-91 533.5z" />
<glyph unicode="x" horiz-adv-x="1155" d="M41 0q8 70 43 145.5t82 149.5t98 139.5t92 114.5q-45 59 -91 118.5t-86 123t-71.5 130t-48.5 140.5h332q25 -92 72 -191.5t117 -173.5q31 37 58.5 84t52 97.5t42 98.5t25.5 85h334q-12 -66 -45 -134.5t-77 -136t-94.5 -131t-97.5 -118.5q113 -141 198 -276.5t114 -264.5 h-328q-25 92 -76 192.5t-119 180.5q-74 -94 -129 -197.5t-71 -175.5h-326z" />
<glyph unicode="y" horiz-adv-x="1105" d="M33 -139q20 -2 42.5 -3t45.5 -1q98 0 156.5 31.5t87.5 88.5l49 95q-141 233 -243.5 485t-135.5 504h325q8 -74 27 -161t46.5 -179t62 -185.5t75.5 -179.5q68 178 113 347t70 358h317q-12 -106 -49 -242.5t-84 -276t-101.5 -270.5t-101.5 -225q-41 -82 -87 -161 t-106.5 -140t-137 -98t-181.5 -37q-29 0 -49 1t-39.5 3t-43 6t-58.5 10v230z" />
<glyph unicode="z" horiz-adv-x="1060" d="M72 0v231q41 51 101 123t130 150t143.5 157.5t139.5 149.5h-504v250h887v-232q-147 -147 -288.5 -296.5t-244.5 -282.5h543v-250h-907z" />
<glyph unicode="{" horiz-adv-x="849" d="M80 469v213q78 16 109.5 50t31.5 108v393q0 47 14.5 100t49 99.5t92 77t145.5 30.5q104 0 163.5 -8t90.5 -14v-215q-27 2 -64.5 4t-70.5 2q-39 0 -65.5 -6.5t-42 -26t-22.5 -59t-7 -107.5v-330q0 -88 -34 -137t-75 -68q41 -18 75 -67t34 -137v-330q0 -68 7 -107.5 t22.5 -59t42 -26t65.5 -6.5q33 0 71 2t64 4v-215q-31 -6 -90 -14t-164 -8q-88 0 -145.5 30.5t-92 76.5t-49 99.5t-14.5 100.5v393q0 74 -31.5 108t-109.5 50z" />
<glyph unicode="|" horiz-adv-x="700" d="M197 -369v1891h307v-1891h-307z" />
<glyph unicode="}" horiz-adv-x="849" d="M74 -152q27 -2 64.5 -4t70.5 -2q39 0 65.5 6.5t42 26t22.5 59t7 107.5v330q0 88 34 137t75 67q-41 18 -75 67.5t-34 137.5v330q0 68 -7 107.5t-22.5 59t-42 26t-65.5 6.5q-33 0 -71 -2t-64 -4v215q31 6 90 14t164 8q88 0 145 -30.5t92 -77t49.5 -99.5t14.5 -100v-393 q0 -74 31.5 -108t109.5 -50v-213q-78 -16 -109.5 -50t-31.5 -108v-393q0 -47 -14.5 -100.5t-49.5 -99.5t-92 -76.5t-145 -30.5q-104 0 -164 8t-90 14v215z" />
<glyph unicode="&#xaa;" horiz-adv-x="1210" d="M98 334q0 100 38 162.5t102.5 98.5t150.5 48t184 12h181v35q0 72 -55.5 114t-184.5 42q-117 0 -214 -10.5t-140 -16.5v201q68 25 175 42t249 17q127 0 216 -26.5t144 -75.5t81 -119t26 -158v-700h-217l-46 88q-59 -51 -144 -77.5t-177 -26.5q-186 0 -277.5 95t-91.5 255z M383 338q0 -55 36 -86t103 -31q66 0 129.5 18.5t100.5 51.5v164h-193q-94 0 -135 -32t-41 -85z" />
<glyph unicode="&#xad;" horiz-adv-x="804" d="M53 457v266h699v-266h-699z" />
<glyph unicode="&#xb2;" d="M94 0v82q0 190 68.5 330.5t226.5 255.5l143 104q94 68 135.5 115t41.5 112q0 76 -46.5 113t-173.5 37q-59 0 -117.5 -6t-107.5 -14.5t-86 -17.5l-53 -13v245q10 2 43 14.5t87 27t130 24.5t170 10q229 0 348 -93t119 -300q0 -94 -22.5 -161.5t-58.5 -117t-78 -83 t-81 -62.5l-151 -110q-29 -20 -58.5 -45t-56.5 -52.5t-45 -59.5t-25 -69h580v-266h-932z" />
<glyph unicode="&#xb3;" d="M88 45v246q47 -10 151.5 -29.5t258.5 -19.5q139 0 195.5 37.5t56.5 123.5q0 45 -14.5 78t-48.5 53.5t-93 30.5t-148 10h-110v269h110q82 0 135.5 9t84 28.5t43 50.5t12.5 74q0 78 -49 114.5t-172 36.5q-127 0 -228.5 -20.5t-148.5 -28.5v242q10 4 43 15t84 23.5 t119.5 21.5t150.5 9q102 0 191.5 -18.5t156 -62.5t104.5 -115.5t38 -178.5q0 -49 -13.5 -98t-42 -92t-78 -80t-118.5 -61q86 -18 141 -53t89 -82.5t47.5 -102.5t13.5 -117q0 -106 -39 -179t-112 -117t-174 -63t-224 -19q-82 0 -153 9t-125 20t-89 21.5t-45 14.5z" />
<glyph unicode="&#xb9;" d="M168 891v291l539 237h127v-1419h-314v1026z" />
<glyph unicode="&#xba;" horiz-adv-x="1236" d="M109 526q0 266 122.5 408.5t386.5 142.5t387 -142t123 -409q0 -266 -122.5 -408.5t-387.5 -142.5q-264 0 -386.5 142.5t-122.5 408.5zM424 526q0 -160 43 -230.5t151 -70.5q109 0 152 71t43 230q0 160 -43 230.5t-152 70.5t-151.5 -70.5t-42.5 -230.5z" />
<glyph unicode="&#xc0;" horiz-adv-x="1286" d="M342 1895h283l122 -320h-208zM33 0q37 178 89 372.5t112.5 384t124 360.5t122.5 302h324q59 -131 122.5 -302t124 -360.5t113 -384t88.5 -372.5h-325q-10 49 -18.5 92t-16.5 85t-18.5 86t-22.5 95h-428q-12 -51 -21.5 -95t-18.5 -86t-17.5 -85t-16.5 -92h-317zM483 612 h312q-16 57 -29.5 104.5t-30 98.5t-39 112.5t-57.5 145.5q-35 -84 -57.5 -145.5t-39 -112.5t-30 -98.5t-29.5 -104.5z" />
<glyph unicode="&#xc2;" horiz-adv-x="1286" d="M172 1575l369 741h205l369 -741h-308l-164 342l-165 -342h-306zM33 0q37 178 89 372.5t112.5 384t124 360.5t122.5 302h324q59 -131 122.5 -302t124 -360.5t113 -384t88.5 -372.5h-325q-10 49 -18.5 92t-16.5 85t-18.5 86t-22.5 95h-428q-12 -51 -21.5 -95t-18.5 -86 t-17.5 -85t-16.5 -92h-317zM483 612h312q-16 57 -29.5 104.5t-30 98.5t-39 112.5t-57.5 145.5q-35 -84 -57.5 -145.5t-39 -112.5t-30 -98.5t-29.5 -104.5z" />
<glyph unicode="&#xc8;" horiz-adv-x="1263" d="M369 1895h283l122 -320h-208zM176 0v1419h987v-258h-671v-305h610v-258h-610v-340h692v-258h-1008z" />
<glyph unicode="&#xca;" horiz-adv-x="1263" d="M198 1575l369 741h205l369 -741h-308l-164 342l-165 -342h-306zM176 0v1419h987v-258h-671v-305h610v-258h-610v-340h692v-258h-1008z" />
<glyph unicode="&#xcc;" horiz-adv-x="667" d="M33 1895h283l122 -320h-208zM176 0v1419h316v-1419h-316z" />
<glyph unicode="&#xce;" horiz-adv-x="667" d="M-138 1575l369 741h205l369 -741h-308l-164 342l-165 -342h-306zM176 0v1419h316v-1419h-316z" />
<glyph unicode="&#xd2;" horiz-adv-x="1552" d="M475 1895h283l122 -320h-208zM131 711q0 219 52.5 362.5t141.5 227t205.5 117.5t245.5 34t246 -34t206 -117.5t141 -227t52 -362.5t-52 -362.5t-141 -227.5t-206 -118t-246 -34t-245.5 34t-205.5 118t-141.5 227.5t-52.5 362.5zM457 711q0 -252 85 -362.5t234 -110.5 q150 0 235 110.5t85 362.5t-85 362.5t-235 110.5t-234.5 -110.5t-84.5 -362.5z" />
<glyph unicode="&#xd4;" horiz-adv-x="1552" d="M305 1575l369 741h205l369 -741h-308l-164 342l-165 -342h-306zM131 711q0 219 52.5 362.5t141.5 227t205.5 117.5t245.5 34t246 -34t206 -117.5t141 -227t52 -362.5t-52 -362.5t-141 -227.5t-206 -118t-246 -34t-245.5 34t-205.5 118t-141.5 227.5t-52.5 362.5zM457 711 q0 -252 85 -362.5t234 -110.5q150 0 235 110.5t85 362.5t-85 362.5t-235 110.5t-234.5 -110.5t-84.5 -362.5z" />
<glyph unicode="&#xd9;" horiz-adv-x="1460" d="M430 1895h283l122 -320h-208zM164 555v864h315v-899q0 -129 59.5 -204.5t190.5 -75.5t191.5 74.5t60.5 205.5v899h315v-864q0 -160 -34.5 -272.5t-103 -182t-173 -101.5t-246.5 -32q-150 0 -258 32t-179 101.5t-104.5 182t-33.5 272.5z" />
<glyph unicode="&#xdb;" horiz-adv-x="1460" d="M260 1575l369 741h205l369 -741h-308l-164 342l-165 -342h-306zM164 555v864h315v-899q0 -129 59.5 -204.5t190.5 -75.5t191.5 74.5t60.5 205.5v899h315v-864q0 -160 -34.5 -272.5t-103 -182t-173 -101.5t-246.5 -32q-150 0 -258 32t-179 101.5t-104.5 182t-33.5 272.5z " />
<glyph unicode="&#xe0;" horiz-adv-x="1210" d="M98 334q0 100 38 162.5t102.5 98.5t150.5 48t184 12h181v35q0 72 -55.5 114t-184.5 42q-117 0 -214 -10.5t-140 -16.5v201q68 25 175 42t249 17q127 0 216 -26.5t144 -75.5t81 -119t26 -158v-700h-217l-46 88q-59 -51 -144 -77.5t-177 -26.5q-186 0 -277.5 95t-91.5 255z M383 338q0 -55 36 -86t103 -31q66 0 129.5 18.5t100.5 51.5v164h-193q-94 0 -135 -32t-41 -85zM332 1522h283l122 -320h-208z" />
<glyph unicode="&#xe2;" horiz-adv-x="1210" d="M112 1202l369 741h205l369 -741h-308l-164 342l-165 -342h-306zM98 334q0 100 38 162.5t102.5 98.5t150.5 48t184 12h181v35q0 72 -55.5 114t-184.5 42q-117 0 -214 -10.5t-140 -16.5v201q68 25 175 42t249 17q127 0 216 -26.5t144 -75.5t81 -119t26 -158v-700h-217 l-46 88q-59 -51 -144 -77.5t-177 -26.5q-186 0 -277.5 95t-91.5 255zM383 338q0 -55 36 -86t103 -31q66 0 129.5 18.5t100.5 51.5v164h-193q-94 0 -135 -32t-41 -85z" />
<glyph unicode="&#xe8;" horiz-adv-x="1171" d="M322 1522h283l122 -320h-208zM109 526q0 262 131 407.5t383 145.5q119 0 203.5 -35.5t140 -97t81 -143.5t25.5 -174q0 -45 -8 -105.5t-21 -97.5h-626q8 -111 72.5 -167t205.5 -56q86 0 176.5 11t176.5 28v-205q-66 -23 -167.5 -42.5t-236.5 -19.5q-262 0 -399 139.5 t-137 411.5zM412 623h395q0 113 -46 165t-147 52q-86 0 -142 -53t-60 -164z" />
<glyph unicode="&#xea;" horiz-adv-x="1171" d="M151 1202l369 741h205l369 -741h-308l-164 342l-165 -342h-306zM109 526q0 262 131 407.5t383 145.5q119 0 203.5 -35.5t140 -97t81 -143.5t25.5 -174q0 -45 -8 -105.5t-21 -97.5h-626q8 -111 72.5 -167t205.5 -56q86 0 176.5 11t176.5 28v-205q-66 -23 -167.5 -42.5 t-236.5 -19.5q-262 0 -399 139.5t-137 411.5zM412 623h395q0 113 -46 165t-147 52q-86 0 -142 -53t-60 -164z" />
<glyph unicode="&#xec;" horiz-adv-x="626" d="M12 1932h283l122 -320h-208zM141 1341q0 76 37 112t135 36t135 -36t37 -112t-36.5 -111.5t-135.5 -35.5q-98 0 -135 35.5t-37 111.5zM160 0v1061h307v-1061h-307z" />
<glyph unicode="&#xee;" horiz-adv-x="626" d="M-158 1612l369 741h205l369 -741h-308l-164 342l-165 -342h-306zM141 1341q0 76 37 112t135 36t135 -36t37 -112t-36.5 -111.5t-135.5 -35.5q-98 0 -135 35.5t-37 111.5zM160 0v1061h307v-1061h-307z" />
<glyph unicode="&#xf2;" horiz-adv-x="1236" d="M109 526q0 266 122.5 408.5t386.5 142.5t387 -142t123 -409q0 -266 -122.5 -408.5t-387.5 -142.5q-264 0 -386.5 142.5t-122.5 408.5zM424 526q0 -160 43 -230.5t151 -70.5q109 0 152 71t43 230q0 160 -43 230.5t-152 70.5t-151.5 -70.5t-42.5 -230.5zM361 1522h283 l122 -320h-208z" />
<glyph unicode="&#xf4;" horiz-adv-x="1236" d="M147 1200l369 741h205l369 -741h-308l-164 342l-165 -342h-306zM109 526q0 266 122.5 408.5t386.5 142.5t387 -142t123 -409q0 -266 -122.5 -408.5t-387.5 -142.5q-264 0 -386.5 142.5t-122.5 408.5zM424 526q0 -160 43 -230.5t151 -70.5q109 0 152 71t43 230 q0 160 -43 230.5t-152 70.5t-151.5 -70.5t-42.5 -230.5z" />
<glyph unicode="&#xf9;" horiz-adv-x="1286" d="M342 1520h283l122 -320h-208zM160 344v717h307v-682q0 -78 42 -110.5t128 -32.5q47 0 94 18t88 47v760h307v-1061h-217l-45 88q-20 -20 -55 -40.5t-78 -36t-92 -25t-100 -9.5q-86 0 -156 19.5t-120 63.5t-76.5 114t-26.5 170z" />
<glyph unicode="&#xfb;" horiz-adv-x="1286" d="M172 1200l369 741h205l369 -741h-308l-164 342l-165 -342h-306zM160 344v717h307v-682q0 -78 42 -110.5t128 -32.5q47 0 94 18t88 47v760h307v-1061h-217l-45 88q-20 -20 -55 -40.5t-78 -36t-92 -25t-100 -9.5q-86 0 -156 19.5t-120 63.5t-76.5 114t-26.5 170z" />
<glyph unicode="&#x152;" horiz-adv-x="2816" d="M1728 0v1419h987v-258h-671v-305h610v-258h-610v-340h692v-258h-1008zM131 711q0 219 52.5 362.5t141.5 227t205.5 117.5t245.5 34t246 -34t206 -117.5t141 -227t52 -362.5t-52 -362.5t-141 -227.5t-206 -118t-246 -34t-245.5 34t-205.5 118t-141.5 227.5t-52.5 362.5z M457 711q0 -252 85 -362.5t234 -110.5q150 0 235 110.5t85 362.5t-85 362.5t-235 110.5t-234.5 -110.5t-84.5 -362.5z" />
<glyph unicode="&#x153;" horiz-adv-x="2408" d="M1346 526q0 262 131 407.5t383 145.5q119 0 203.5 -35.5t140 -97t81 -143.5t25.5 -174q0 -45 -8 -105.5t-21 -97.5h-626q8 -111 72.5 -167t205.5 -56q86 0 176.5 11t176.5 28v-205q-66 -23 -167.5 -42.5t-236.5 -19.5q-262 0 -399 139.5t-137 411.5zM1649 623h395 q0 113 -46 165t-147 52q-86 0 -142 -53t-60 -164zM109 526q0 266 122.5 408.5t386.5 142.5t387 -142t123 -409q0 -266 -122.5 -408.5t-387.5 -142.5q-264 0 -386.5 142.5t-122.5 408.5zM424 526q0 -160 43 -230.5t151 -70.5q109 0 152 71t43 230q0 160 -43 230.5t-152 70.5 t-151.5 -70.5t-42.5 -230.5z" />
<glyph unicode="&#x2c6;" horiz-adv-x="980" d="M18 678l369 741h205l369 -741h-308l-164 342l-165 -342h-306z" />
<glyph unicode="&#x2000;" horiz-adv-x="1175" />
<glyph unicode="&#x2001;" horiz-adv-x="2353" />
<glyph unicode="&#x2002;" horiz-adv-x="1175" />
<glyph unicode="&#x2003;" horiz-adv-x="2353" />
<glyph unicode="&#x2004;" horiz-adv-x="784" />
<glyph unicode="&#x2005;" horiz-adv-x="587" />
<glyph unicode="&#x2006;" horiz-adv-x="391" />
<glyph unicode="&#x2007;" horiz-adv-x="391" />
<glyph unicode="&#x2008;" horiz-adv-x="292" />
<glyph unicode="&#x2009;" horiz-adv-x="468" />
<glyph unicode="&#x200a;" horiz-adv-x="129" />
<glyph unicode="&#x2010;" horiz-adv-x="804" d="M53 457v266h699v-266h-699z" />
<glyph unicode="&#x2011;" horiz-adv-x="804" d="M53 457v266h699v-266h-699z" />
<glyph unicode="&#x2012;" horiz-adv-x="804" d="M53 457v266h699v-266h-699z" />
<glyph unicode="&#x2013;" horiz-adv-x="1024" d="M-10 469v244h1044v-244h-1044z" />
<glyph unicode="&#x2014;" horiz-adv-x="2048" d="M-10 469v244h2068v-244h-2068z" />
<glyph unicode="&#x2018;" horiz-adv-x="614" d="M117 1106q0 20 3 42.5t14 52.5t31.5 71t55.5 100l88 150h195l-119 -275q92 -29 92 -141q0 -82 -45 -119t-135 -37q-88 0 -134 37t-46 119z" />
<glyph unicode="&#x2019;" horiz-adv-x="614" d="M111 969l118 274q-92 29 -92 141q0 82 45 119t135 37q88 0 134.5 -37t46.5 -119q0 -20 -3 -42.5t-14.5 -52t-32 -71.5t-55.5 -100l-88 -149h-194z" />
<glyph unicode="&#x201c;" horiz-adv-x="1087" d="M117 1106q0 20 3 42.5t14 52.5t31.5 71t55.5 100l88 150h195l-119 -275q92 -29 92 -141q0 -82 -45 -119t-135 -37q-88 0 -134 37t-46 119zM590 1106q0 20 3 42.5t14 52.5t31.5 71t55.5 100l88 150h195l-119 -275q92 -29 92 -141q0 -82 -45 -119t-135 -37q-88 0 -134 37 t-46 119z" />
<glyph unicode="&#x201d;" horiz-adv-x="1087" d="M111 969l118 274q-92 29 -92 141q0 82 45 119t135 37q88 0 134.5 -37t46.5 -119q0 -20 -3 -42.5t-14.5 -52t-32 -71.5t-55.5 -100l-88 -149h-194zM584 969l118 274q-92 29 -92 141q0 82 45 119t135 37q88 0 134.5 -37t46.5 -119q0 -20 -3 -42.5t-14.5 -52t-32 -71.5 t-55.5 -100l-88 -149h-194z" />
<glyph unicode="&#x2026;" horiz-adv-x="1843" d="M1346 143q0 86 48 126t142 40t142.5 -40t48.5 -126t-48.5 -126t-142.5 -40t-142 40t-48 126zM731 143q0 86 48 126t142 40t142.5 -40t48.5 -126t-48.5 -126t-142.5 -40t-142 40t-48 126zM117 143q0 86 48 126t142 40t142.5 -40t48.5 -126t-48.5 -126t-142.5 -40t-142 40 t-48 126z" />
<glyph unicode="&#x202f;" horiz-adv-x="468" />
<glyph unicode="&#x2039;" d="M119 487v207l928 371v-283l-529 -190l529 -193v-282z" />
<glyph unicode="&#x203a;" d="M119 117v282l528 193l-528 190v283l928 -371v-207z" />
<glyph unicode="&#x205f;" horiz-adv-x="587" />
<glyph unicode="&#x2122;" horiz-adv-x="3006" d="M1458 0v1419h346l340 -717l340 717h346v-1419h-305v932l-264 -565h-240l-258 548v-915h-305zM49 1141v278h1184v-278h-434v-1141h-316v1141h-434z" />
<glyph unicode="&#xe000;" horiz-adv-x="1060" d="M0 1060h1060v-1060h-1060v1060z" />
<glyph unicode="&#xfb01;" horiz-adv-x="1415" d="M929 1341q0 76 37 112t135 36t135 -36t37 -112t-36.5 -111.5t-135.5 -35.5q-98 0 -135 35.5t-37 111.5zM948 0v1061h307v-1061h-307zM61 803v258h123v117q0 193 92.5 277.5t278.5 84.5q45 0 89 -3t84 -7t73 -10.5t53 -12.5v-227q-57 6 -121.5 7t-103.5 1 q-137 0 -137 -123v-104h256v-258h-256v-803h-308v803h-123z" />
<glyph unicode="&#xfb02;" horiz-adv-x="1478" d="M948 315v1207h307v-1200q0 -33 10 -50.5t25.5 -26.5t36 -11.5t43.5 -2.5q14 0 41.5 1t44.5 1v-225q-49 -10 -96.5 -14t-112.5 -4q-133 0 -216 77.5t-83 247.5zM61 803v258h123v117q0 193 92.5 277.5t278.5 84.5q45 0 89 -3t84 -7t73 -10.5t53 -12.5v-227q-57 6 -121.5 7 t-103.5 1q-137 0 -137 -123v-104h256v-258h-256v-803h-308v803h-123z" />
<glyph unicode="&#xfb03;" horiz-adv-x="2203" d="M1718 1341q0 76 37 112t135 36t135 -36t37 -112t-36.5 -111.5t-135.5 -35.5q-98 0 -135 35.5t-37 111.5zM1737 0v1061h307v-1061h-307zM849 803v258h123v117q0 193 92.5 277.5t278.5 84.5q45 0 89 -3t84 -7t73 -10.5t53 -12.5v-227q-57 6 -121.5 7t-103.5 1 q-137 0 -137 -123v-104h256v-258h-256v-803h-308v803h-123zM61 803v258h123v117q0 193 92.5 277.5t278.5 84.5q45 0 89 -3t84 -7t73 -10.5t53 -12.5v-227q-57 6 -121.5 7t-103.5 1q-137 0 -137 -123v-104h256v-258h-256v-803h-308v803h-123z" />
<glyph unicode="&#xfb04;" horiz-adv-x="2267" d="M1737 315v1207h307v-1200q0 -33 10 -50.5t25.5 -26.5t36 -11.5t43.5 -2.5q14 0 41.5 1t44.5 1v-225q-49 -10 -96.5 -14t-112.5 -4q-133 0 -216 77.5t-83 247.5zM849 803v258h123v117q0 193 92.5 277.5t278.5 84.5q45 0 89 -3t84 -7t73 -10.5t53 -12.5v-227 q-57 6 -121.5 7t-103.5 1q-137 0 -137 -123v-104h256v-258h-256v-803h-308v803h-123zM61 803v258h123v117q0 193 92.5 277.5t278.5 84.5q45 0 89 -3t84 -7t73 -10.5t53 -12.5v-227q-57 6 -121.5 7t-103.5 1q-137 0 -137 -123v-104h256v-258h-256v-803h-308v803h-123z" />
</font>
</defs>
</svg>
